<svg xmlns="http://www.w3.org/2000/svg" viewBox="0 0 45.54 43"><defs><style>.cls-1{fill:#b3b3b3;stroke:#000;stroke-miterlimit:10;}</style></defs><title>Fichier 46</title><g id="Calque_2" data-name="Calque 2"><g id="Calque_2_-_copie" data-name="Calque 2 - copie"><path class="cls-1" d="M40.08,2a13.89,13.89,0,0,0-12.3-.22c-3.86,1.71-6.64,5.47-8.28,8.29A1.64,1.64,0,0,0,18,13c-.15.33-.24.56-.28.64l-8,17.54a1.65,1.65,0,0,0-1.42,3l.06,0-1.8,4H2.15a1.65,1.65,0,0,0,0,3.3h8.24a1.65,1.65,0,0,0,0-3.3h-.16l1.14-2.51a1.47,1.47,0,0,0,.46.07,1.64,1.64,0,0,0,.89-3L21,14.44a1.68,1.68,0,0,0,.69.15,1.64,1.64,0,0,0,.81-3.07c1.41-2.38,3.67-5.38,6.62-6.68,3.17-1.4,6.84-1.38,9.33.06a6.21,6.21,0,0,1,3.13,5c.46,4.24.07,7.08-1.16,8.44a2.85,2.85,0,0,1-.36.34v3.69a6.37,6.37,0,0,0,2.81-1.83c1.91-2.12,2.55-5.71,2-11A9.58,9.58,0,0,0,40.08,2Z"/><path class="cls-1" d="M35.39,29.83a7.21,7.21,0,0,1,3,.67v-13c0-.92.08-.83-.83-.83H34.35c-.91,0-10.1.76-12.52,12.75l-1.56,9.91c0,.91.74,2.06,1.65,2.06h7.82a7.15,7.15,0,0,1,5.65-11.54Z"/><path class="cls-1" d="M39.22,33a5.16,5.16,0,0,0-.82-.66,5.5,5.5,0,0,0-6.34,9,5.51,5.51,0,0,0,6.73,0A5.47,5.47,0,0,0,40.9,37a5.5,5.5,0,0,0-1.68-4Zm-3.83,1.19A2.76,2.76,0,1,1,32.63,37,2.75,2.75,0,0,1,35.39,34.23Z"/></g></g></svg>