<svg xmlns="http://www.w3.org/2000/svg" viewBox="0 0 1749 892.5"><defs><style>.cls-1,.cls-13,.cls-20,.cls-3{fill:#f2f2f2;}.cls-1,.cls-13,.cls-14,.cls-15,.cls-16,.cls-17,.cls-18,.cls-19,.cls-20,.cls-23,.cls-25,.cls-26{stroke:#000;}.cls-1,.cls-11,.cls-13,.cls-14,.cls-15,.cls-16,.cls-17,.cls-18,.cls-19,.cls-20,.cls-23,.cls-25,.cls-26{stroke-miterlimit:10;}.cls-1{opacity:0.2;}.cls-2,.cls-25{fill:#3d96d8;}.cls-21,.cls-4{font-size:21px;}.cls-11,.cls-14,.cls-26,.cls-4,.cls-7{fill:#fff;}.cls-4{font-family:Montserrat-SemiBold, Montserrat;font-weight:600;}.cls-5{fill:#56626b;}.cls-6{letter-spacing:-0.03em;}.cls-23,.cls-8{fill:none;}.cls-9{letter-spacing:0em;}.cls-10{letter-spacing:0em;}.cls-11{stroke:#56626b;}.cls-12{font-size:19px;}.cls-12,.cls-21,.cls-24{font-family:Montserrat-Regular, Montserrat;}.cls-13{opacity:0.3;}.cls-14{stroke-width:0.75px;fill-rule:evenodd;}.cls-15{fill:#b3b3b3;}.cls-16{fill:red;}.cls-17{fill:#f1c40f;}.cls-18{fill:#f39c12;}.cls-19{fill:#e67e22;}.cls-20{opacity:0.89;}.cls-22{letter-spacing:-0.01em;}.cls-23{stroke-width:2px;}.cls-24{font-size:23px;}</style></defs><title>Fichier 7</title><g id="Calque_2" data-name="Calque 2"><g id="Calque_2-2" data-name="Calque 2"><rect class="cls-1" x="400.5" y="369" width="1348" height="523"/><rect class="cls-2" x="1146" y="604.5" width="561" height="59"/><rect class="cls-2" x="451" y="455.5" width="561" height="59"/><rect class="cls-3" x="774" y="474.5" width="207" height="21" rx="10.5"/><rect class="cls-2" x="1146" y="455.5" width="561" height="59"/><rect class="cls-2" x="451" y="529.5" width="561" height="59"/><rect class="cls-2" x="1146" y="529.5" width="561" height="59"/><rect class="cls-2" x="452" y="603.5" width="561" height="59"/><rect class="cls-2" x="452" y="677.5" width="561" height="59"/><rect class="cls-2" x="1147" y="677.5" width="561" height="59"/><rect class="cls-2" x="452" y="751.5" width="561" height="59"/><rect class="cls-2" x="1147" y="751.5" width="561" height="59"/><rect class="cls-2" x="453" y="825.5" width="561" height="59"/><rect class="cls-2" x="1148" y="825.5" width="561" height="59"/><text class="cls-4" transform="translate(540.34 490.68)">When I read</text><rect class="cls-5" x="1007" y="473.5" width="10" height="21"/><text class="cls-4" transform="translate(578.23 565.68)">When hac<tspan class="cls-6" x="107.18" y="0">k</tspan><tspan x="119.61" y="0">ed</tspan></text><rect class="cls-5" x="1008" y="547.5" width="10" height="21"/><polygon class="cls-7" points="700 478.5 711.43 493.5 722.86 478.5 700 478.5"/><polygon class="cls-7" points="794 551.5 805.43 566.5 816.86 551.5 794 551.5"/><rect class="cls-5" x="1138" y="473.5" width="10" height="21"/><rect class="cls-5" x="1139" y="547.5" width="10" height="21"/><path class="cls-8" d="M1159,463.5h45v45h-45Z"/><path class="cls-3" d="M481.38,544.12h-3.75v18.75h3.75Zm9.05,4.07-2.66,2.67A13,13,0,0,1,492.63,561a13.13,13.13,0,1,1-21.42-10.16l-2.64-2.65a16.88,16.88,0,1,0,21.86,0Z"/><text class="cls-4" transform="translate(1270.79 563.68)">I <tspan class="cls-9" x="11.49" y="0">w</tspan><tspan x="30.95" y="0">ri</tspan><tspan class="cls-10" x="46.03" y="0">t</tspan><tspan x="54.89" y="0">e</tspan></text><polygon class="cls-7" points="1416 550.5 1427.43 565.5 1438.86 550.5 1416 550.5"/><path class="cls-11" d="M417,571a3.55,3.55,0,0,0,3.54,3.54h14.17a3.55,3.55,0,0,0,3.54-3.54V549.71H417Zm23-26.56h-6.2L432,542.63h-8.85l-1.77,1.77h-6.2v3.54H440Z"/><text class="cls-4" transform="translate(1280.32 491.68)">I use</text><polygon class="cls-7" points="1416 478.5 1427.43 493.5 1438.86 478.5 1416 478.5"/><rect class="cls-5" x="1140" y="621.5" width="10" height="21"/><rect class="cls-5" x="1141" y="695.5" width="10" height="21"/><rect class="cls-5" x="1142" y="769.5" width="10" height="21"/><rect class="cls-5" x="1143" y="843.5" width="10" height="21"/><rect class="cls-5" x="1007" y="621.5" width="10" height="21"/><rect class="cls-5" x="1008" y="695.5" width="10" height="21"/><rect class="cls-5" x="1006" y="769.5" width="10" height="21"/><rect class="cls-5" x="1007" y="843.5" width="10" height="21"/><text class="cls-12" transform="translate(787.09 490.83)">LightOn</text><rect class="cls-3" x="1485" y="548.5" width="207" height="21" rx="10.5"/><text class="cls-12" transform="translate(1498.09 564.83)">Open</text><rect class="cls-13" x="1148" y="381.5" width="561" height="59"/><path class="cls-11" d="M428,473.05v5.72l7.64-7.63L428,463.5v5.73a15.25,15.25,0,0,0-12.91,23.4l2.79-2.78a11.22,11.22,0,0,1-1.33-5.35A11.45,11.45,0,0,1,428,473.05Zm12.91,3.32-2.79,2.78A11.45,11.45,0,0,1,428,496v-5.72l-7.64,7.63L428,505.5v-5.73a15.25,15.25,0,0,0,12.91-23.4Z"/><path class="cls-7" d="M481.21,471.9A22.82,22.82,0,0,0,460,486.36a22.78,22.78,0,0,0,42.41,0A22.79,22.79,0,0,0,481.21,471.9Zm0,24.1a9.64,9.64,0,1,1,9.64-9.64A9.64,9.64,0,0,1,481.21,496Zm0-15.42a5.79,5.79,0,1,0,5.78,5.78A5.78,5.78,0,0,0,481.21,480.58Z"/><path class="cls-7" d="M1165,565.78v6.72h6.72l19.83-19.83-6.72-6.72Zm33-19.56-6.72-6.72-4.54,4.55,6.72,6.72Z"/><path class="cls-14" d="M1515.59,428.72a.82.82,0,1,0,.82.82A.83.83,0,0,0,1515.59,428.72Z"/><path class="cls-15" d="M1583.77,391a13.91,13.91,0,0,0-12.31-.22c-3.86,1.71-6.64,5.47-8.28,8.29a1.64,1.64,0,0,0-1.47,2.84c-.15.33-.24.56-.27.64l-8,17.54a1.64,1.64,0,0,0-1.41,3l0,0-1.8,3.95h-4.46a1.65,1.65,0,1,0,0,3.3h8.24a1.65,1.65,0,1,0,0-3.3h-.16l1.15-2.51a1.76,1.76,0,0,0,.45.07,1.64,1.64,0,0,0,.89-3l8.27-18.17a1.72,1.72,0,0,0,.69.15,1.64,1.64,0,0,0,.81-3.07c1.41-2.38,3.67-5.38,6.62-6.68,3.18-1.4,6.84-1.38,9.33.06a6.21,6.21,0,0,1,3.13,5c.46,4.24.07,7.08-1.16,8.44a2.31,2.31,0,0,1-.36.34v3.69a6.46,6.46,0,0,0,2.82-1.83c1.9-2.12,2.55-5.71,2-11A9.63,9.63,0,0,0,1583.77,391Z"/><path class="cls-15" d="M1579.07,418.83a7.17,7.17,0,0,1,3,.67v-13c0-.91.09-.82-.82-.82H1578c-.91,0-10.09.76-12.52,12.75l-1.55,9.91c0,.91.73,2.06,1.64,2.06h7.82a7.16,7.16,0,0,1,5.65-11.54Z"/><path class="cls-15" d="M1582.91,422a5.23,5.23,0,0,0-.83-.66,5.44,5.44,0,0,0-3-.9,5.51,5.51,0,0,0-1.8,10.71,5.41,5.41,0,0,0,3.61,0,5.65,5.65,0,0,0,1.6-.87,5.75,5.75,0,0,0,1.16-1.25,5.5,5.5,0,0,0,.09-6A5.82,5.82,0,0,0,1582.91,422Zm-3.84,1.19a2.76,2.76,0,1,1-2.76,2.76A2.76,2.76,0,0,1,1579.07,423.23Z"/><circle class="cls-13" cx="1267" cy="411.5" r="20.5"/><path class="cls-16" d="M1590.49,480l-12.4,12.4a7.79,7.79,0,0,1-11-11l12.4-12.4L1574,463.5l-12.39,12.4a15.58,15.58,0,0,0,22,22l12.4-12.4ZM1574,466.26l2.76,2.75-4.13,4.13-2.76-2.75Zm12.41,20.66,4.13-4.13,2.75,2.75-4.13,4.13Z"/><polygon class="cls-17" points="1417.7 393.5 1409.41 413.41 1422.68 413.41 1416.05 430 1439.27 406.77 1424.34 406.77 1434.3 393.5 1417.7 393.5"/><path class="cls-18" d="M1417.7,393.5l-8.29,19.91h5l8.29-19.91Zm5,19.91L1416.05,430l5-5,6.64-11.61Z"/><polygon class="cls-19" points="1422.68 413.41 1422.01 415.07 1426.83 415.07 1427.66 413.41 1422.68 413.41"/><text class="cls-4" transform="translate(1281.32 640.68)">I use</text><polygon class="cls-7" points="1417 627.5 1428.43 642.5 1439.86 627.5 1417 627.5"/><circle class="cls-13" cx="1577" cy="633.5" r="20.5"/><polygon class="cls-7" points="816.86 640.5 805.43 625.5 794 640.5 816.86 640.5"/><rect class="cls-13" x="521.5" y="613" width="260" height="42"/><text class="cls-4" transform="translate(578.23 640.68)">When hac<tspan class="cls-6" x="107.18" y="0">k</tspan><tspan x="119.61" y="0">ed</tspan></text><rect class="cls-20" x="521.5" y="655" width="260" height="71"/><text class="cls-21" transform="translate(548.39 681.68)">When I am <tspan class="cls-22" x="118.96" y="0">t</tspan><tspan x="127.15" y="0">ouched</tspan></text><text class="cls-21" transform="translate(588.41 710.68)">When I read</text><circle class="cls-5" cx="1075" cy="368.5" r="20"/><polygon class="cls-7" points="1063 362.5 1074.43 377.5 1085.86 362.5 1063 362.5"/></g><g id="Calque_76" data-name="Calque 76"><rect class="cls-13" x="1526.5" y="825.5" width="182.5" height="59"/><path class="cls-15" d="M1687.77,834a13.91,13.91,0,0,0-12.31-.22c-3.86,1.71-6.64,5.47-8.28,8.29a1.64,1.64,0,0,0-1.47,2.84c-.15.33-.24.56-.27.64l-8,17.54a1.64,1.64,0,0,0-1.41,3l0,0-1.8,4h-4.46a1.65,1.65,0,1,0,0,3.3h8.24a1.65,1.65,0,1,0,0-3.3h-.16l1.15-2.51a1.76,1.76,0,0,0,.45.07,1.64,1.64,0,0,0,.89-3l8.27-18.17a1.72,1.72,0,0,0,.69.15,1.64,1.64,0,0,0,.81-3.07c1.41-2.38,3.67-5.38,6.62-6.68,3.18-1.4,6.84-1.38,9.33.06a6.21,6.21,0,0,1,3.13,5c.46,4.24.07,7.08-1.16,8.44a2.31,2.31,0,0,1-.36.34v3.69a6.46,6.46,0,0,0,2.82-1.83c1.9-2.12,2.55-5.71,2-11A9.63,9.63,0,0,0,1687.77,834Z"/><path class="cls-15" d="M1683.07,861.83a7.17,7.17,0,0,1,3,.67v-13c0-.91.09-.82-.82-.82H1682c-.91,0-10.09.76-12.52,12.75l-1.55,9.91c0,.91.73,2.06,1.64,2.06h7.82a7.16,7.16,0,0,1,5.65-11.54Z"/><path class="cls-15" d="M1686.91,865a5.23,5.23,0,0,0-.83-.66,5.44,5.44,0,0,0-3-.9,5.51,5.51,0,0,0-1.8,10.71,5.41,5.41,0,0,0,3.61,0,5.65,5.65,0,0,0,1.6-.87,5.75,5.75,0,0,0,1.16-1.25,5.5,5.5,0,0,0,.09-6A5.82,5.82,0,0,0,1686.91,865Zm-3.84,1.19a2.76,2.76,0,1,1-2.76,2.76A2.76,2.76,0,0,1,1683.07,866.23Z"/><path class="cls-16" d="M1578.49,850l-12.4,12.4a7.79,7.79,0,0,1-11-11l12.4-12.4L1562,833.5l-12.39,12.4a15.58,15.58,0,1,0,22,22l12.4-12.4ZM1562,836.26l2.76,2.75-4.13,4.13-2.76-2.75Zm12.41,20.66,4.13-4.13,2.75,2.75-4.13,4.13Z"/><path class="cls-16" d="M1634.49,850l-12.4,12.4a7.79,7.79,0,0,1-11-11l12.4-12.4L1618,833.5l-12.39,12.4a15.58,15.58,0,1,0,22,22l12.4-12.4ZM1618,836.26l2.76,2.75-4.13,4.13-2.76-2.75Zm12.41,20.66,4.13-4.13,2.75,2.75-4.13,4.13Z"/></g><g id="Calque_72" data-name="Calque 72"><rect class="cls-3" y="833.5" width="381" height="59"/><line class="cls-23" x1="321" y1="833.5" x2="321" y2="892.5"/><polygon points="346 874.43 361 863 346 851.57 346 874.43"/><text class="cls-24" transform="translate(14.34 871.85)">Lorem ipsum dolor </text><rect class="cls-1" x="2" y="369" width="381" height="448"/><path d="M16.26,709.26H18v11h5.51v1.57H16.26Z"/><path d="M32,712.89a4.46,4.46,0,0,1,1.72,1.7,5.35,5.35,0,0,1,0,5A4.42,4.42,0,0,1,32,721.3a5.59,5.59,0,0,1-5.08,0,4.49,4.49,0,0,1-1.73-1.7,5.37,5.37,0,0,1,0-5,4.49,4.49,0,0,1,1.73-1.7,5.59,5.59,0,0,1,5.08,0Zm-4.2,1.28a3,3,0,0,0-1.13,1.2,3.62,3.62,0,0,0-.41,1.73,3.79,3.79,0,0,0,.41,1.77,3,3,0,0,0,1.13,1.19,3.2,3.2,0,0,0,1.67.43,3.11,3.11,0,0,0,1.64-.43,2.91,2.91,0,0,0,1.14-1.19,3.78,3.78,0,0,0,.4-1.77,3.62,3.62,0,0,0-.4-1.73,3,3,0,0,0-1.14-1.2,3.11,3.11,0,0,0-1.64-.43A3.2,3.2,0,0,0,27.82,714.17Z"/><path d="M39.71,712.83a3.89,3.89,0,0,1,2-.55v1.62a3.06,3.06,0,0,0-3.38,2.93v5H36.7v-9.53h1.68v2.06A3.36,3.36,0,0,1,39.71,712.83Z"/><path d="M50.74,713.58a5.34,5.34,0,0,1,1.14,3.63c0,.24,0,.42,0,.54H44.34a3.28,3.28,0,0,0,1.07,2,3.18,3.18,0,0,0,2.15.75,4.07,4.07,0,0,0,1.57-.3,3.88,3.88,0,0,0,1.27-.87l.92,1a4.93,4.93,0,0,1-1.69,1.17,5.75,5.75,0,0,1-2.2.41,5.1,5.1,0,0,1-2.49-.6,4.25,4.25,0,0,1-1.69-1.7,5.18,5.18,0,0,1-.61-2.51,5.1,5.1,0,0,1,.61-2.49,4.32,4.32,0,0,1,1.68-1.71,4.9,4.9,0,0,1,2.47-.62A4.18,4.18,0,0,1,50.74,713.58Zm-.37,2.87a2.77,2.77,0,0,0-3-2.79,3,3,0,0,0-2.09.76,3.18,3.18,0,0,0-1,2Z"/><path d="M69,713.27A3.75,3.75,0,0,1,70,716v5.89H68.28v-5.44a2.62,2.62,0,0,0-.66-1.89,2.38,2.38,0,0,0-1.81-.68,2.71,2.71,0,0,0-2.12.95,3.52,3.52,0,0,0-.78,2.36v4.7H61.22v-5.44a2.66,2.66,0,0,0-.65-1.89,2.37,2.37,0,0,0-1.82-.68,2.74,2.74,0,0,0-2.13.95,3.52,3.52,0,0,0-.78,2.36v4.7H54.16v-9.53h1.68v2a3.59,3.59,0,0,1,3.54-2.05,3.64,3.64,0,0,1,2.19.63,3.09,3.09,0,0,1,1.18,1.76,3.61,3.61,0,0,1,3.71-2.39A3.36,3.36,0,0,1,69,713.27Z"/><path d="M79.25,708.84a1.06,1.06,0,0,1,.29.78,1,1,0,0,1-.29.77,1.06,1.06,0,0,1-1.5,0,1.08,1.08,0,0,1-.29-.77,1.11,1.11,0,0,1,.29-.78,1.09,1.09,0,0,1,1.5,0Zm-1.58,3.49h1.68v9.53H77.67Z"/><path d="M90.27,712.89a4.17,4.17,0,0,1,1.62,1.71,5.74,5.74,0,0,1,0,5,4.17,4.17,0,0,1-1.6,1.7,4.64,4.64,0,0,1-2.37.6,4.4,4.4,0,0,1-2.12-.5A3.69,3.69,0,0,1,84.37,720v5.38H82.69v-13h1.68v1.89a3.67,3.67,0,0,1,1.43-1.44,4.29,4.29,0,0,1,2.1-.5A4.57,4.57,0,0,1,90.27,712.89Zm-1,7.13a3,3,0,0,0,1.13-1.21,3.66,3.66,0,0,0,.41-1.74,3.57,3.57,0,0,0-.42-1.73,3,3,0,0,0-1.13-1.21,3.21,3.21,0,0,0-1.64-.43,3.27,3.27,0,0,0-1.65.43,3.09,3.09,0,0,0-1.14,1.21,3.9,3.9,0,0,0,0,3.48,3.13,3.13,0,0,0,1.14,1.2,3.38,3.38,0,0,0,3.3,0Z"/><path d="M98.71,713.86a4.85,4.85,0,0,0-1.36-.21,2.3,2.3,0,0,0-1.22.28.92.92,0,0,0-.46.85.93.93,0,0,0,.52.87,7.63,7.63,0,0,0,1.55.61,12.24,12.24,0,0,1,1.62.57,3,3,0,0,1,1.07.85,2.27,2.27,0,0,1,.44,1.48,2.35,2.35,0,0,1-1,2.05,4.34,4.34,0,0,1-2.53.7,6.23,6.23,0,0,1-2.06-.34,4.74,4.74,0,0,1-1.69-1l.63-1.23a4.62,4.62,0,0,0,1.47.87,5,5,0,0,0,1.7.32,2.47,2.47,0,0,0,1.33-.31,1,1,0,0,0,.51-.93,1.06,1.06,0,0,0-.53-1,6.86,6.86,0,0,0-1.61-.65,11.32,11.32,0,0,1-1.56-.55,2.82,2.82,0,0,1-1-.82,2.22,2.22,0,0,1-.42-1.4,2.25,2.25,0,0,1,1-2,4.17,4.17,0,0,1,2.43-.67,6.12,6.12,0,0,1,1.7.24,5.54,5.54,0,0,1,1.45.66l-.61,1.28A6.12,6.12,0,0,0,98.71,713.86Z"/><path d="M111.51,712.33v9.53h-1.69v-2a3.57,3.57,0,0,1-3.53,2.07,3.42,3.42,0,0,1-2.59-1,3.8,3.8,0,0,1-.94-2.71v-5.89h1.7v5.44a2.58,2.58,0,0,0,.65,1.88,2.41,2.41,0,0,0,1.81.68,2.72,2.72,0,0,0,2.12-1,3.56,3.56,0,0,0,.78-2.37v-4.68Z"/><path d="M129.64,713.27a3.79,3.79,0,0,1,.93,2.7v5.89h-1.69v-5.44a2.62,2.62,0,0,0-.66-1.89,2.35,2.35,0,0,0-1.8-.68,2.74,2.74,0,0,0-2.13.95,3.56,3.56,0,0,0-.77,2.36v4.7h-1.69v-5.44a2.66,2.66,0,0,0-.65-1.89,2.37,2.37,0,0,0-1.82-.68,2.74,2.74,0,0,0-2.13.95,3.47,3.47,0,0,0-.79,2.36v4.7h-1.67v-9.53h1.67v2a3.61,3.61,0,0,1,3.55-2.05,3.66,3.66,0,0,1,2.19.63,3.14,3.14,0,0,1,1.18,1.76,3.59,3.59,0,0,1,3.7-2.39A3.38,3.38,0,0,1,129.64,713.27Z"/><path d="M147.15,708.5v13.36h-1.67V720a3.84,3.84,0,0,1-1.45,1.46,4.27,4.27,0,0,1-2.12.52,4.48,4.48,0,0,1-2.38-.63,4.24,4.24,0,0,1-1.61-1.72,5.33,5.33,0,0,1-.58-2.53,5.21,5.21,0,0,1,.58-2.5,4.25,4.25,0,0,1,1.61-1.7,4.64,4.64,0,0,1,2.37-.61,4.34,4.34,0,0,1,2.14.51,3.59,3.59,0,0,1,1.44,1.45V708.5Zm-3.23,11.57a2.93,2.93,0,0,0,1.14-1.2,3.88,3.88,0,0,0,0-3.51,3,3,0,0,0-1.14-1.21,3.4,3.4,0,0,0-3.33,0,3,3,0,0,0-1.14,1.21,3.86,3.86,0,0,0,0,3.5,2.93,2.93,0,0,0,1.14,1.2,3.37,3.37,0,0,0,3.33,0Z"/><path d="M157,712.89a4.46,4.46,0,0,1,1.72,1.7,5.35,5.35,0,0,1,0,5A4.42,4.42,0,0,1,157,721.3a5.59,5.59,0,0,1-5.08,0,4.49,4.49,0,0,1-1.73-1.7,5.37,5.37,0,0,1,0-5,4.49,4.49,0,0,1,1.73-1.7,5.59,5.59,0,0,1,5.08,0Zm-4.2,1.28a3,3,0,0,0-1.13,1.2,3.62,3.62,0,0,0-.41,1.73,3.79,3.79,0,0,0,.41,1.77,3,3,0,0,0,1.13,1.19,3.2,3.2,0,0,0,1.67.43,3.11,3.11,0,0,0,1.64-.43,2.91,2.91,0,0,0,1.14-1.19,3.78,3.78,0,0,0,.4-1.77,3.62,3.62,0,0,0-.4-1.73,3,3,0,0,0-1.14-1.2,3.11,3.11,0,0,0-1.64-.43A3.2,3.2,0,0,0,152.81,714.17Z"/><path d="M161.78,708.5h1.68v13.36h-1.68Z"/><path d="M173.31,712.89a4.42,4.42,0,0,1,1.73,1.7,5.35,5.35,0,0,1,0,5,4.38,4.38,0,0,1-1.73,1.71,5.57,5.57,0,0,1-5.07,0,4.42,4.42,0,0,1-1.73-1.7,5.37,5.37,0,0,1,0-5,4.42,4.42,0,0,1,1.73-1.7,5.57,5.57,0,0,1,5.07,0Zm-4.19,1.28a3,3,0,0,0-1.13,1.2,3.62,3.62,0,0,0-.41,1.73,3.79,3.79,0,0,0,.41,1.77,2.88,2.88,0,0,0,1.13,1.19,3.19,3.19,0,0,0,1.66.43,3.12,3.12,0,0,0,1.65-.43,2.91,2.91,0,0,0,1.14-1.19,3.78,3.78,0,0,0,.4-1.77,3.62,3.62,0,0,0-.4-1.73,3,3,0,0,0-1.14-1.2,3.12,3.12,0,0,0-1.65-.43A3.19,3.19,0,0,0,169.12,714.17Z"/><path d="M181,712.83a3.87,3.87,0,0,1,2.05-.55v1.62a3.06,3.06,0,0,0-3.38,2.93v5H178v-9.53h1.68v2.06A3.36,3.36,0,0,1,181,712.83Z"/><path d="M193.49,713.86a4.79,4.79,0,0,0-1.36-.21,2.26,2.26,0,0,0-1.21.28.92.92,0,0,0-.46.85.93.93,0,0,0,.51.87,7.53,7.53,0,0,0,1.56.61,12.24,12.24,0,0,1,1.62.57,3,3,0,0,1,1.07.85,2.62,2.62,0,0,1-.58,3.53,4.34,4.34,0,0,1-2.53.7,6.31,6.31,0,0,1-2.06-.34,4.79,4.79,0,0,1-1.68-1l.63-1.23a4.51,4.51,0,0,0,1.47.87,5,5,0,0,0,1.7.32,2.49,2.49,0,0,0,1.33-.31,1,1,0,0,0,.5-.93,1,1,0,0,0-.53-1,6.68,6.68,0,0,0-1.61-.65,11.62,11.62,0,0,1-1.55-.55,2.74,2.74,0,0,1-1-.82,2.22,2.22,0,0,1-.42-1.4,2.25,2.25,0,0,1,1-2,4.17,4.17,0,0,1,2.43-.67,6.18,6.18,0,0,1,1.7.24,5.54,5.54,0,0,1,1.45.66l-.61,1.28A6.2,6.2,0,0,0,193.49,713.86Z"/><path d="M199.45,708.84a1.07,1.07,0,0,1,.3.78,1,1,0,0,1-.3.77,1,1,0,0,1-.75.31,1,1,0,0,1-.74-.31,1,1,0,0,1-.3-.77,1.07,1.07,0,0,1,.3-.78,1,1,0,0,1,.74-.3A1,1,0,0,1,199.45,708.84Zm-1.58,3.49h1.68v9.53h-1.68Z"/><path d="M207.92,721.23a4.17,4.17,0,0,1-2.23.7,2.55,2.55,0,0,1-1.84-.68,2.7,2.7,0,0,1-.7-2v-5.27H201.8v-1.28h1.35V710.1h1.69v2.56h2.92v1.28h-2.92v5a1.79,1.79,0,0,0,.29,1.14,1.05,1.05,0,0,0,.86.34,3,3,0,0,0,1.48-.45Z"/><path d="M220.48,721.86v-1.34a3.9,3.9,0,0,1-3.33,1.41,3.84,3.84,0,0,1-1.74-.38,2.74,2.74,0,0,1-1.55-2.54,2.42,2.42,0,0,1,.94-2,4.21,4.21,0,0,1,2.64-.77h3v-.45a2,2,0,0,0-.62-1.56,2.66,2.66,0,0,0-1.81-.55,5.22,5.22,0,0,0-2.93,1l-.7-1.15a8.27,8.27,0,0,1,1.9-1,6.39,6.39,0,0,1,2.08-.3,4,4,0,0,1,2.75.87,3.15,3.15,0,0,1,1,2.44l0,6.27Zm-1-1.89a2.16,2.16,0,0,0,1-1.5v-1h-2.79a3.25,3.25,0,0,0-1.68.34,1.18,1.18,0,0,0-.55,1.08,1.41,1.41,0,0,0,.56,1.17,2.36,2.36,0,0,0,1.49.43A3.39,3.39,0,0,0,219.48,720Z"/><path d="M240,713.27a3.75,3.75,0,0,1,.94,2.7v5.89h-1.69v-5.44a2.62,2.62,0,0,0-.66-1.89,2.38,2.38,0,0,0-1.81-.68,2.71,2.71,0,0,0-2.12.95,3.52,3.52,0,0,0-.78,2.36v4.7h-1.69v-5.44a2.62,2.62,0,0,0-.65-1.89,2.35,2.35,0,0,0-1.81-.68,2.76,2.76,0,0,0-2.14.95,3.52,3.52,0,0,0-.78,2.36v4.7h-1.67v-9.53h1.67v2a3.59,3.59,0,0,1,3.55-2.05,3.63,3.63,0,0,1,2.18.63,3.09,3.09,0,0,1,1.18,1.76,3.61,3.61,0,0,1,3.71-2.39A3.36,3.36,0,0,1,240,713.27Z"/><path d="M251.08,713.58a5.34,5.34,0,0,1,1.14,3.63c0,.24,0,.42,0,.54h-7.53a3.33,3.33,0,0,0,1.07,2,3.21,3.21,0,0,0,2.16.75,4.1,4.1,0,0,0,1.57-.3,3.88,3.88,0,0,0,1.27-.87l.92,1A4.93,4.93,0,0,1,250,721.5a5.78,5.78,0,0,1-2.2.41,5,5,0,0,1-2.49-.6,4.34,4.34,0,0,1-1.7-1.7,5.17,5.17,0,0,1-.6-2.51,5.1,5.1,0,0,1,.6-2.49,4.41,4.41,0,0,1,1.69-1.71,4.89,4.89,0,0,1,2.46-.62A4.18,4.18,0,0,1,251.08,713.58Zm-.38,2.87a2.87,2.87,0,0,0-.86-2,2.91,2.91,0,0,0-2.09-.75,3,3,0,0,0-2.1.76,3.17,3.17,0,0,0-1,2Z"/><path d="M259.61,721.23a4.15,4.15,0,0,1-2.23.7,2.52,2.52,0,0,1-1.83-.68,2.7,2.7,0,0,1-.71-2v-5.27h-1.35v-1.28h1.35V710.1h1.7v2.56h2.91v1.28h-2.91v5a1.8,1.8,0,0,0,.28,1.14,1.07,1.07,0,0,0,.87.34,3,3,0,0,0,1.47-.45Z"/><path d="M262.56,720.27a1,1,0,0,1,.28.72,1.14,1.14,0,0,1-.09.42c-.05.14-.11.28-.17.41l-1,2h-.92l.72-2a.9.9,0,0,1-.37-.35,1,1,0,0,1,.15-1.21.9.9,0,0,1,.69-.28A.94.94,0,0,1,262.56,720.27Z"/><path d="M274,713.77a3.29,3.29,0,0,0-1.67.42,2.8,2.8,0,0,0-1.14,1.17,3.5,3.5,0,0,0-.42,1.74,3.65,3.65,0,0,0,.41,1.75,3,3,0,0,0,1.11,1.18,3.17,3.17,0,0,0,1.63.42,4.35,4.35,0,0,0,1.66-.3,3.14,3.14,0,0,0,1.22-.89l1,1a4.19,4.19,0,0,1-1.65,1.24,5.62,5.62,0,0,1-2.26.43,5,5,0,0,1-2.47-.61,4.43,4.43,0,0,1-1.68-1.7,5.51,5.51,0,0,1,0-5,4.38,4.38,0,0,1,1.68-1.71,4.92,4.92,0,0,1,2.47-.61,6,6,0,0,1,2.17.37,4.1,4.1,0,0,1,1.61,1.07l-.92,1.15A3.76,3.76,0,0,0,274,713.77Z"/><path d="M286.23,712.89a4.46,4.46,0,0,1,1.72,1.7,5.35,5.35,0,0,1,0,5,4.42,4.42,0,0,1-1.72,1.71,5.59,5.59,0,0,1-5.08,0,4.49,4.49,0,0,1-1.73-1.7,5.37,5.37,0,0,1,0-5,4.49,4.49,0,0,1,1.73-1.7,5.59,5.59,0,0,1,5.08,0Zm-4.2,1.28a3,3,0,0,0-1.13,1.2,3.62,3.62,0,0,0-.41,1.73,3.79,3.79,0,0,0,.41,1.77,3,3,0,0,0,1.13,1.19,3.2,3.2,0,0,0,1.67.43,3.11,3.11,0,0,0,1.64-.43,2.91,2.91,0,0,0,1.14-1.19,3.78,3.78,0,0,0,.4-1.77,3.62,3.62,0,0,0-.4-1.73,3,3,0,0,0-1.14-1.2,3.11,3.11,0,0,0-1.64-.43A3.2,3.2,0,0,0,282,714.17Z"/><path d="M298.83,713.26a3.71,3.71,0,0,1,1,2.71v5.89h-1.68v-5.44a2.54,2.54,0,0,0-.67-1.88,2.52,2.52,0,0,0-1.86-.68,2.91,2.91,0,0,0-2.08.82,3.2,3.2,0,0,0-.91,2.08v5.1h-1.68v-9.53h1.68v2a3.66,3.66,0,0,1,3.62-2.07A3.49,3.49,0,0,1,298.83,713.26Z"/><path d="M306.67,713.86a4.74,4.74,0,0,0-1.36-.21,2.28,2.28,0,0,0-1.21.28.92.92,0,0,0-.46.85.93.93,0,0,0,.51.87,7.77,7.77,0,0,0,1.56.61,12.24,12.24,0,0,1,1.62.57,3,3,0,0,1,1.07.85,2.27,2.27,0,0,1,.44,1.48,2.35,2.35,0,0,1-1,2.05,4.36,4.36,0,0,1-2.53.7,6.23,6.23,0,0,1-2.06-.34,4.74,4.74,0,0,1-1.69-1l.63-1.23a4.62,4.62,0,0,0,1.47.87,5,5,0,0,0,1.7.32,2.47,2.47,0,0,0,1.33-.31,1,1,0,0,0,.51-.93,1.06,1.06,0,0,0-.53-1,7,7,0,0,0-1.62-.65,11.62,11.62,0,0,1-1.55-.55,2.74,2.74,0,0,1-1-.82,2.22,2.22,0,0,1-.42-1.4,2.25,2.25,0,0,1,1-2,4.17,4.17,0,0,1,2.43-.67,6.12,6.12,0,0,1,1.7.24,5.54,5.54,0,0,1,1.45.66l-.61,1.28A6,6,0,0,0,306.67,713.86Z"/><path d="M318.22,713.58a5.33,5.33,0,0,1,1.13,3.63c0,.24,0,.42,0,.54h-7.53a3.28,3.28,0,0,0,1.07,2,3.18,3.18,0,0,0,2.15.75,4.12,4.12,0,0,0,1.58-.3,4,4,0,0,0,1.27-.87l.92,1a5,5,0,0,1-1.7,1.17,5.73,5.73,0,0,1-2.19.41,5,5,0,0,1-2.49-.6,4.34,4.34,0,0,1-1.7-1.7,5.17,5.17,0,0,1-.6-2.51,5.1,5.1,0,0,1,.6-2.49,4.41,4.41,0,0,1,1.69-1.71,4.89,4.89,0,0,1,2.46-.62A4.2,4.2,0,0,1,318.22,713.58Zm-.38,2.87a2.76,2.76,0,0,0-2.95-2.79,3,3,0,0,0-2.1.76,3.18,3.18,0,0,0-1,2Z"/><path d="M325.6,713.77a3.25,3.25,0,0,0-1.66.42,2.88,2.88,0,0,0-1.15,1.17,3.61,3.61,0,0,0-.41,1.74,3.64,3.64,0,0,0,.4,1.75A3,3,0,0,0,323.9,720a3.14,3.14,0,0,0,1.63.42,4.33,4.33,0,0,0,1.65-.3,3.18,3.18,0,0,0,1.23-.89l.95,1a4.19,4.19,0,0,1-1.65,1.24,5.54,5.54,0,0,1-2.25.43,5,5,0,0,1-2.47-.61,4.36,4.36,0,0,1-1.68-1.7,5.43,5.43,0,0,1,0-5,4.32,4.32,0,0,1,1.68-1.71,4.89,4.89,0,0,1,2.47-.61,6,6,0,0,1,2.17.37,4.18,4.18,0,0,1,1.61,1.07l-.92,1.15A3.78,3.78,0,0,0,325.6,713.77Z"/><path d="M336.87,721.23a4.17,4.17,0,0,1-2.23.7,2.55,2.55,0,0,1-1.84-.68,2.7,2.7,0,0,1-.7-2v-5.27h-1.35v-1.28h1.35V710.1h1.69v2.56h2.92v1.28h-2.92v5a1.79,1.79,0,0,0,.29,1.14,1.05,1.05,0,0,0,.86.34,3,3,0,0,0,1.48-.45Z"/><path d="M345.94,713.58a5.33,5.33,0,0,1,1.13,3.63c0,.24,0,.42,0,.54h-7.53a3.28,3.28,0,0,0,1.07,2,3.2,3.2,0,0,0,2.15.75,4.12,4.12,0,0,0,1.58-.3,4,4,0,0,0,1.27-.87l.92,1a5,5,0,0,1-1.7,1.17,5.73,5.73,0,0,1-2.19.41,5,5,0,0,1-2.49-.6,4.34,4.34,0,0,1-1.7-1.7,5.17,5.17,0,0,1-.6-2.51,5.1,5.1,0,0,1,.6-2.49,4.41,4.41,0,0,1,1.69-1.71,4.89,4.89,0,0,1,2.46-.62A4.2,4.2,0,0,1,345.94,713.58Zm-.38,2.87a2.76,2.76,0,0,0-2.95-2.79,3,3,0,0,0-2.1.76,3.23,3.23,0,0,0-1,2Z"/><path d="M348.86,715.79h4.3V717h-4.3Z"/><path d="M21.21,742.83a4.17,4.17,0,0,1-2.23.7,2.55,2.55,0,0,1-1.84-.68,2.7,2.7,0,0,1-.7-2v-5.27H15.09v-1.28h1.35V731.7h1.69v2.56H21v1.28H18.13v5a1.79,1.79,0,0,0,.29,1.14,1.05,1.05,0,0,0,.86.34,3,3,0,0,0,1.48-.45Z"/><path d="M31.67,733.93v9.53H30v-2a3.57,3.57,0,0,1-3.53,2.07,3.44,3.44,0,0,1-2.59-1,3.79,3.79,0,0,1-.93-2.71v-5.89h1.69v5.44a2.58,2.58,0,0,0,.66,1.88,2.4,2.4,0,0,0,1.81.68,2.7,2.7,0,0,0,2.11-.95,3.56,3.56,0,0,0,.78-2.37v-4.68Z"/><path d="M42.09,735.18a5.4,5.4,0,0,1,1.13,3.63c0,.24,0,.42,0,.54H35.68a3.28,3.28,0,0,0,1.07,2,3.18,3.18,0,0,0,2.15.75,4.15,4.15,0,0,0,1.58-.3,4,4,0,0,0,1.26-.87l.92,1A4.93,4.93,0,0,1,41,743.1a5.75,5.75,0,0,1-2.2.41,5.1,5.1,0,0,1-2.49-.6,4.32,4.32,0,0,1-1.69-1.7,5.17,5.17,0,0,1-.6-2.51,5.1,5.1,0,0,1,.6-2.49,4.38,4.38,0,0,1,1.68-1.71,4.9,4.9,0,0,1,2.47-.62A4.24,4.24,0,0,1,42.09,735.18Zm-.38,2.88a2.76,2.76,0,0,0-3-2.79,3,3,0,0,0-2.1.75,3.18,3.18,0,0,0-1,2Z"/><path d="M48.51,734.43a4,4,0,0,1,2.05-.55v1.62a3.07,3.07,0,0,0-3.38,2.93v5H45.51v-9.53h1.67V736A3.42,3.42,0,0,1,48.51,734.43Z"/><path d="M62.91,743.46v-1.34a3.9,3.9,0,0,1-3.33,1.41,3.77,3.77,0,0,1-1.73-.38,2.8,2.8,0,0,1-1.16-1,2.86,2.86,0,0,1-.4-1.5,2.42,2.42,0,0,1,.94-2,4.21,4.21,0,0,1,2.64-.77h3v-.45a1.93,1.93,0,0,0-.62-1.55,2.61,2.61,0,0,0-1.81-.55,5.2,5.2,0,0,0-2.93,1l-.7-1.15a8.48,8.48,0,0,1,1.9-1,6.39,6.39,0,0,1,2.08-.3,4,4,0,0,1,2.75.87,3.15,3.15,0,0,1,1,2.44l0,6.27Zm-1-1.88a2.2,2.2,0,0,0,1-1.51v-1H60.1a3.25,3.25,0,0,0-1.68.34,1.2,1.2,0,0,0-.55,1.08,1.41,1.41,0,0,0,.56,1.17,2.36,2.36,0,0,0,1.49.43A3.45,3.45,0,0,0,61.91,741.58Z"/><path d="M76.43,730.1v13.36H74.76v-1.89A3.84,3.84,0,0,1,73.31,743a4.27,4.27,0,0,1-2.12.52,4.48,4.48,0,0,1-2.38-.63,4.24,4.24,0,0,1-1.61-1.72,5.33,5.33,0,0,1-.58-2.53,5.21,5.21,0,0,1,.58-2.5,4.25,4.25,0,0,1,1.61-1.7,4.63,4.63,0,0,1,2.36-.61,4.38,4.38,0,0,1,2.15.51,3.59,3.59,0,0,1,1.44,1.45V730.1ZM73.2,741.67a2.93,2.93,0,0,0,1.14-1.2,3.88,3.88,0,0,0,0-3.51,3,3,0,0,0-1.14-1.21,3.4,3.4,0,0,0-3.33,0A3,3,0,0,0,68.73,737a3.56,3.56,0,0,0-.42,1.74,3.62,3.62,0,0,0,.42,1.75,2.93,2.93,0,0,0,1.14,1.2,3.37,3.37,0,0,0,3.33,0Z"/><path d="M81.37,730.44a1.07,1.07,0,0,1,.3.78,1,1,0,0,1-.3.77,1,1,0,0,1-.75.31,1,1,0,0,1-.74-.31,1,1,0,0,1-.3-.77,1.07,1.07,0,0,1,.3-.78,1,1,0,0,1,.74-.3A1,1,0,0,1,81.37,730.44Zm-1.57,3.49h1.67v9.53H79.8Z"/><path d="M92.4,734.49A4.31,4.31,0,0,1,94,736.2a5.38,5.38,0,0,1,.57,2.52,5.26,5.26,0,0,1-.57,2.49,4.1,4.1,0,0,1-1.6,1.7,4.63,4.63,0,0,1-2.36.6,4.41,4.41,0,0,1-2.13-.5,3.69,3.69,0,0,1-1.44-1.44V747H84.82v-13h1.67v1.89a3.73,3.73,0,0,1,1.43-1.44,4.35,4.35,0,0,1,2.1-.5A4.61,4.61,0,0,1,92.4,734.49Zm-1.06,7.13a3,3,0,0,0,1.14-1.21,3.92,3.92,0,0,0,0-3.47,3.09,3.09,0,0,0-1.14-1.21,3.17,3.17,0,0,0-1.63-.43,3.22,3.22,0,0,0-1.65.43,3,3,0,0,0-1.14,1.21,3.81,3.81,0,0,0,0,3.48,3,3,0,0,0,1.14,1.2,3.36,3.36,0,0,0,3.29,0Z"/><path d="M98.51,730.44a1.06,1.06,0,0,1,.29.78,1,1,0,0,1-.29.77,1.06,1.06,0,0,1-1.5,0,1,1,0,0,1-.29-.77,1.06,1.06,0,0,1,.29-.78,1.09,1.09,0,0,1,1.5,0Zm-1.58,3.49h1.68v9.53H96.93Z"/><path d="M105.76,735.46a4.79,4.79,0,0,0-1.36-.21,2.26,2.26,0,0,0-1.21.28.92.92,0,0,0-.46.85.93.93,0,0,0,.51.87,7.53,7.53,0,0,0,1.56.61,12.24,12.24,0,0,1,1.62.57,3,3,0,0,1,1.07.85,2.62,2.62,0,0,1-.58,3.53,4.34,4.34,0,0,1-2.53.7,6.31,6.31,0,0,1-2.06-.34,4.79,4.79,0,0,1-1.68-1l.63-1.23a4.51,4.51,0,0,0,1.47.87,5,5,0,0,0,1.7.32,2.49,2.49,0,0,0,1.33-.31,1,1,0,0,0,.5-.93,1,1,0,0,0-.53-1,6.68,6.68,0,0,0-1.61-.65,11,11,0,0,1-1.56-.55,2.79,2.79,0,0,1-1-.82,2.22,2.22,0,0,1-.42-1.4,2.25,2.25,0,0,1,1-2,4.17,4.17,0,0,1,2.43-.67,5.83,5.83,0,0,1,1.7.25,5.22,5.22,0,0,1,1.45.65l-.61,1.28A6.2,6.2,0,0,0,105.76,735.46Z"/><path d="M114.1,735.37a3.25,3.25,0,0,0-1.66.42A2.8,2.8,0,0,0,111.3,737a3.5,3.5,0,0,0-.42,1.74,3.65,3.65,0,0,0,.41,1.75,3,3,0,0,0,1.11,1.18,3.17,3.17,0,0,0,1.63.42,4.38,4.38,0,0,0,1.66-.3,3.14,3.14,0,0,0,1.22-.89l1,1a4.34,4.34,0,0,1-1.65,1.24,5.62,5.62,0,0,1-2.26.43,4.92,4.92,0,0,1-2.47-.61,4.36,4.36,0,0,1-1.68-1.7,5.51,5.51,0,0,1,0-5,4.32,4.32,0,0,1,1.68-1.71,4.92,4.92,0,0,1,2.47-.61,6,6,0,0,1,2.17.37,4.21,4.21,0,0,1,1.61,1.07l-.92,1.15A3.77,3.77,0,0,0,114.1,735.37Z"/><path d="M121.83,730.44a1.07,1.07,0,0,1,.3.78,1,1,0,0,1-.3.77,1,1,0,0,1-.74.31,1,1,0,0,1-.75-.31,1,1,0,0,1-.3-.77,1.07,1.07,0,0,1,.3-.78,1,1,0,0,1,.75-.3A1,1,0,0,1,121.83,730.44Zm-1.57,3.49h1.67v9.53h-1.67Z"/><path d="M133.11,734.86a3.72,3.72,0,0,1,.95,2.71v5.89h-1.67V738a2.34,2.34,0,0,0-2.54-2.56,2.94,2.94,0,0,0-2.08.82,3.3,3.3,0,0,0-.91,2.08v5.1h-1.67v-9.53h1.67v2a3.68,3.68,0,0,1,3.62-2.07A3.52,3.52,0,0,1,133.11,734.86Z"/><path d="M145.48,733.93v8.55a4.58,4.58,0,0,1-.61,2.4,4,4,0,0,1-1.7,1.57,5.57,5.57,0,0,1-2.55.55,6.49,6.49,0,0,1-3.93-1.33l.74-1.22a5,5,0,0,0,1.46.85,4.61,4.61,0,0,0,1.65.28,3.31,3.31,0,0,0,2.36-.83,2.88,2.88,0,0,0,.88-2.21v-1.33a3.57,3.57,0,0,1-1.36,1.34,4,4,0,0,1-2,.47,4.3,4.3,0,0,1-2.26-.58,3.92,3.92,0,0,1-1.52-1.63,5.13,5.13,0,0,1-.54-2.39,5,5,0,0,1,.54-2.36,3.85,3.85,0,0,1,1.52-1.6,4.3,4.3,0,0,1,2.26-.58,4.12,4.12,0,0,1,2,.47,3.39,3.39,0,0,1,1.35,1.33v-1.75Zm-3.15,7.33a3,3,0,0,0,1.07-1.14,3.46,3.46,0,0,0,.38-1.65,3.51,3.51,0,0,0-.38-1.67,3.08,3.08,0,0,0-4.21-1.14,2.91,2.91,0,0,0-1.09,1.14,3.41,3.41,0,0,0-.4,1.67,3.28,3.28,0,0,0,.86,2.3,2.89,2.89,0,0,0,2.2.9A2.94,2.94,0,0,0,142.33,741.26Z"/><path d="M160.42,735.18a5.4,5.4,0,0,1,1.13,3.63c0,.24,0,.42,0,.54H154a3.28,3.28,0,0,0,1.07,2,3.18,3.18,0,0,0,2.15.75,4.15,4.15,0,0,0,1.58-.3,4,4,0,0,0,1.26-.87l.92,1a4.93,4.93,0,0,1-1.69,1.17,5.75,5.75,0,0,1-2.2.41,5.1,5.1,0,0,1-2.49-.6,4.32,4.32,0,0,1-1.69-1.7,5.17,5.17,0,0,1-.6-2.51,5.1,5.1,0,0,1,.6-2.49,4.38,4.38,0,0,1,1.68-1.71,4.9,4.9,0,0,1,2.47-.62A4.24,4.24,0,0,1,160.42,735.18Zm-.38,2.88a2.76,2.76,0,0,0-2.95-2.79,3,3,0,0,0-2.1.75,3.18,3.18,0,0,0-1,2Z"/><path d="M163.93,730.1h1.67v13.36h-1.67Z"/><path d="M170.54,730.44a1.07,1.07,0,0,1,.3.78,1,1,0,0,1-.3.77,1,1,0,0,1-.75.31,1,1,0,0,1-.74-.31,1,1,0,0,1-.3-.77,1.07,1.07,0,0,1,.3-.78,1,1,0,0,1,.74-.3A1,1,0,0,1,170.54,730.44ZM169,733.93h1.67v9.53H169Z"/><path d="M179,742.83a4.17,4.17,0,0,1-2.23.7,2.55,2.55,0,0,1-1.84-.68,2.7,2.7,0,0,1-.7-2v-5.27h-1.35v-1.28h1.35V731.7h1.69v2.56h2.92v1.28h-2.92v5a1.79,1.79,0,0,0,.29,1.14,1.05,1.05,0,0,0,.86.34,3,3,0,0,0,1.48-.45Z"/><path d="M182,741.87a.94.94,0,0,1,.28.72,1.35,1.35,0,0,1-.08.42c-.05.14-.11.28-.17.41l-1,2.05h-.92l.72-2a.92.92,0,0,1-.38-.35,1.06,1.06,0,0,1-.12-.5.94.94,0,0,1,1-1A.92.92,0,0,1,182,741.87Z"/><path d="M193.33,735.46a4.85,4.85,0,0,0-1.36-.21,2.32,2.32,0,0,0-1.22.28,1,1,0,0,0,.06,1.72,7.53,7.53,0,0,0,1.56.61,12.24,12.24,0,0,1,1.62.57,3,3,0,0,1,1.07.85,2.62,2.62,0,0,1-.58,3.53,4.34,4.34,0,0,1-2.53.7,6.27,6.27,0,0,1-2.06-.34,4.61,4.61,0,0,1-1.68-1l.63-1.23a4.46,4.46,0,0,0,1.46.87,5.06,5.06,0,0,0,1.71.32,2.49,2.49,0,0,0,1.33-.31,1,1,0,0,0,.5-.93,1.06,1.06,0,0,0-.53-1,6.68,6.68,0,0,0-1.61-.65,10.13,10.13,0,0,1-1.56-.55,2.79,2.79,0,0,1-1-.82,2.17,2.17,0,0,1-.43-1.4,2.26,2.26,0,0,1,1-2,4.12,4.12,0,0,1,2.43-.67,5.83,5.83,0,0,1,1.7.25,5.36,5.36,0,0,1,1.45.65l-.62,1.28A5.9,5.9,0,0,0,193.33,735.46Z"/><path d="M204.88,735.18a5.4,5.4,0,0,1,1.13,3.63c0,.24,0,.42,0,.54h-7.52a3.28,3.28,0,0,0,1.07,2,3.18,3.18,0,0,0,2.15.75,4.07,4.07,0,0,0,1.57-.3,3.88,3.88,0,0,0,1.27-.87l.92,1a4.93,4.93,0,0,1-1.69,1.17,5.75,5.75,0,0,1-2.2.41,5.1,5.1,0,0,1-2.49-.6,4.25,4.25,0,0,1-1.69-1.7,5.17,5.17,0,0,1-.6-2.51,5.1,5.1,0,0,1,.6-2.49,4.38,4.38,0,0,1,1.68-1.71,4.9,4.9,0,0,1,2.47-.62A4.24,4.24,0,0,1,204.88,735.18Zm-.38,2.88a2.76,2.76,0,0,0-2.95-2.79,3,3,0,0,0-2.1.75,3.18,3.18,0,0,0-1,2Z"/><path d="M217.17,730.1v13.36H215.5v-1.89a3.84,3.84,0,0,1-1.45,1.46,4.3,4.3,0,0,1-2.12.52,4.48,4.48,0,0,1-2.38-.63,4.24,4.24,0,0,1-1.61-1.72,5.33,5.33,0,0,1-.58-2.53,5.21,5.21,0,0,1,.58-2.5,4.25,4.25,0,0,1,1.61-1.7,4.61,4.61,0,0,1,2.36-.61,4.38,4.38,0,0,1,2.15.51,3.59,3.59,0,0,1,1.44,1.45V730.1Zm-3.23,11.57a3,3,0,0,0,1.14-1.2,3.88,3.88,0,0,0,0-3.51,3,3,0,0,0-1.14-1.21,3.4,3.4,0,0,0-3.33,0,3,3,0,0,0-1.14,1.22,3.56,3.56,0,0,0-.42,1.74,3.62,3.62,0,0,0,.42,1.75,2.93,2.93,0,0,0,1.14,1.2,3.17,3.17,0,0,0,1.66.44A3.2,3.2,0,0,0,213.94,741.67Z"/><path d="M234.13,730.1v13.36h-1.68v-1.89A3.77,3.77,0,0,1,231,743a4.23,4.23,0,0,1-2.11.52,4.51,4.51,0,0,1-2.39-.63,4.24,4.24,0,0,1-1.61-1.72,5.45,5.45,0,0,1-.58-2.53,5.33,5.33,0,0,1,.58-2.5,4.25,4.25,0,0,1,1.61-1.7,4.64,4.64,0,0,1,2.37-.61,4.34,4.34,0,0,1,2.14.51,3.59,3.59,0,0,1,1.44,1.45V730.1Zm-3.24,11.57a3,3,0,0,0,1.15-1.2,4,4,0,0,0,0-3.51,3,3,0,0,0-1.15-1.21,3.16,3.16,0,0,0-1.66-.43,3.06,3.06,0,0,0-2.81,1.66,3.55,3.55,0,0,0-.41,1.74,3.62,3.62,0,0,0,.41,1.75,3.07,3.07,0,0,0,1.14,1.2,3.2,3.2,0,0,0,1.67.44A3.17,3.17,0,0,0,230.89,741.67Z"/><path d="M239.07,730.44a1.11,1.11,0,0,1,.29.78,1.08,1.08,0,0,1-.29.77,1.06,1.06,0,0,1-1.5,0,1,1,0,0,1-.3-.77,1.07,1.07,0,0,1,.3-.78,1.09,1.09,0,0,1,1.5,0Zm-1.58,3.49h1.67v9.53h-1.67Z"/><path d="M248.24,743.46v-1.34a3.9,3.9,0,0,1-3.33,1.41,3.84,3.84,0,0,1-1.74-.38,2.77,2.77,0,0,1-1.15-1,2.86,2.86,0,0,1-.41-1.5,2.43,2.43,0,0,1,.95-2,4.2,4.2,0,0,1,2.63-.77h3v-.45a2,2,0,0,0-.62-1.55,2.65,2.65,0,0,0-1.81-.55,5.23,5.23,0,0,0-2.94,1l-.7-1.15a8.69,8.69,0,0,1,1.9-1,6.43,6.43,0,0,1,2.08-.3,4,4,0,0,1,2.75.87,3.15,3.15,0,0,1,1,2.44l0,6.27Zm-1-1.88a2.27,2.27,0,0,0,1-1.51v-1h-2.79a3.2,3.2,0,0,0-1.68.34,1.18,1.18,0,0,0-.55,1.08,1.41,1.41,0,0,0,.55,1.17,2.39,2.39,0,0,0,1.5.43A3.48,3.48,0,0,0,247.24,741.58Z"/><path d="M267.75,734.87a3.79,3.79,0,0,1,.93,2.7v5.89H267V738a2.62,2.62,0,0,0-.66-1.89,2.35,2.35,0,0,0-1.8-.68,2.74,2.74,0,0,0-2.13.95,3.56,3.56,0,0,0-.77,2.36v4.7h-1.69V738a2.66,2.66,0,0,0-.65-1.89,2.37,2.37,0,0,0-1.82-.68,2.74,2.74,0,0,0-2.13.95,3.52,3.52,0,0,0-.79,2.36v4.7h-1.67v-9.53h1.67v2a4.11,4.11,0,0,1,5.74-1.42,3.14,3.14,0,0,1,1.18,1.76,3.59,3.59,0,0,1,3.7-2.39A3.38,3.38,0,0,1,267.75,734.87Z"/><path d="M284.31,734.86a3.76,3.76,0,0,1,.95,2.71v5.89h-1.67V738a2.55,2.55,0,0,0-.68-1.88,2.52,2.52,0,0,0-1.86-.68,2.92,2.92,0,0,0-2.08.82,3.25,3.25,0,0,0-.91,2.08v5.1h-1.67v-9.53h1.67v2a3.67,3.67,0,0,1,3.62-2.07A3.52,3.52,0,0,1,284.31,734.86Z"/><path d="M294.74,734.49a4.49,4.49,0,0,1,1.73,1.7,5.35,5.35,0,0,1,0,5,4.44,4.44,0,0,1-1.73,1.71,5.59,5.59,0,0,1-5.08,0,4.39,4.39,0,0,1-1.72-1.7,5.3,5.3,0,0,1,0-5,4.39,4.39,0,0,1,1.72-1.7,5.59,5.59,0,0,1,5.08,0Zm-4.2,1.28a3,3,0,0,0-1.13,1.2,3.65,3.65,0,0,0-.4,1.73,3.78,3.78,0,0,0,.4,1.77,3,3,0,0,0,1.13,1.19,3.22,3.22,0,0,0,1.67.43,3.17,3.17,0,0,0,1.65-.43,3,3,0,0,0,1.13-1.19,3.79,3.79,0,0,0,.41-1.77A3.65,3.65,0,0,0,295,737a3,3,0,0,0-1.13-1.2,3.17,3.17,0,0,0-1.65-.43A3.22,3.22,0,0,0,290.54,735.77Z"/><path d="M307.35,734.86a3.76,3.76,0,0,1,.95,2.71v5.89h-1.67V738a2.55,2.55,0,0,0-.68-1.88,2.52,2.52,0,0,0-1.86-.68,2.92,2.92,0,0,0-2.08.82,3.25,3.25,0,0,0-.91,2.08v5.1h-1.67v-9.53h1.67v2a3.67,3.67,0,0,1,3.62-2.07A3.52,3.52,0,0,1,307.35,734.86Z"/><path d="M319.71,733.93v9.53H318v-2a3.57,3.57,0,0,1-3.53,2.07,3.44,3.44,0,0,1-2.59-1,3.79,3.79,0,0,1-.93-2.71v-5.89h1.69v5.44a2.62,2.62,0,0,0,.65,1.88,2.43,2.43,0,0,0,1.81.68,2.7,2.7,0,0,0,2.12-.95,3.56,3.56,0,0,0,.78-2.37v-4.68Z"/><path d="M337.84,734.87a3.79,3.79,0,0,1,.93,2.7v5.89h-1.69V738a2.66,2.66,0,0,0-.65-1.89,2.39,2.39,0,0,0-1.81-.68,2.74,2.74,0,0,0-2.13.95,3.56,3.56,0,0,0-.77,2.36v4.7H330V738a2.66,2.66,0,0,0-.65-1.89,2.37,2.37,0,0,0-1.82-.68,2.74,2.74,0,0,0-2.13.95,3.52,3.52,0,0,0-.78,2.36v4.7H323v-9.53h1.68v2a3.59,3.59,0,0,1,3.54-2,3.64,3.64,0,0,1,2.19.63,3.14,3.14,0,0,1,1.18,1.76,3.61,3.61,0,0,1,3.71-2.39A3.37,3.37,0,0,1,337.84,734.87Z"/><path d="M341.26,737.39h4.3v1.21h-4.3Z"/><path d="M31,756.47a3.75,3.75,0,0,1,.94,2.7v5.89H30.21v-5.44a2.62,2.62,0,0,0-.66-1.89,2.38,2.38,0,0,0-1.81-.68,2.71,2.71,0,0,0-2.12,1,3.52,3.52,0,0,0-.78,2.36v4.7H23.15v-5.44a2.62,2.62,0,0,0-.65-1.89,2.36,2.36,0,0,0-1.81-.68,2.76,2.76,0,0,0-2.14,1,3.52,3.52,0,0,0-.78,2.36v4.7H16.1v-9.53h1.67v2a3.59,3.59,0,0,1,3.54-2,3.64,3.64,0,0,1,2.19.63,3.09,3.09,0,0,1,1.18,1.76,3.61,3.61,0,0,1,3.71-2.39A3.36,3.36,0,0,1,31,756.47Z"/><path d="M36.68,768.06a2.87,2.87,0,0,1-1.76.56,3.11,3.11,0,0,1-2.08-.74l.72-1.31a2.16,2.16,0,0,0,1.27.45,1.74,1.74,0,0,0,1.62-1.23l.36-.84-3.94-9.42h1.77l3,7.64,2.86-7.64h1.71l-4.35,10.88A3.77,3.77,0,0,1,36.68,768.06Z"/><path d="M56.43,756.46a3.72,3.72,0,0,1,1,2.71v5.89H55.71v-5.44a2.34,2.34,0,0,0-2.54-2.56,2.9,2.9,0,0,0-2.07.82,3.2,3.2,0,0,0-.91,2.08v5.1H48.51v-9.53h1.68v2a3.66,3.66,0,0,1,3.62-2.07A3.49,3.49,0,0,1,56.43,756.46Z"/><path d="M62,752a1.07,1.07,0,0,1,.3.78,1,1,0,0,1-.3.77,1,1,0,0,1-.75.31,1,1,0,0,1-.74-.31,1,1,0,0,1-.3-.77,1.07,1.07,0,0,1,.3-.78,1,1,0,0,1,.74-.3A1,1,0,0,1,62,752Zm-1.57,3.49h1.67v9.53H60.38Z"/><path d="M73,756.09a4.17,4.17,0,0,1,1.62,1.71,5.74,5.74,0,0,1,0,5,4.1,4.1,0,0,1-1.6,1.7,4.64,4.64,0,0,1-2.37.6,4.4,4.4,0,0,1-2.12-.5,3.69,3.69,0,0,1-1.44-1.44v1.89H65.4V751.7h1.67v5.72A3.73,3.73,0,0,1,68.5,756a4.35,4.35,0,0,1,2.1-.5A4.55,4.55,0,0,1,73,756.09Zm-1,7.13A3,3,0,0,0,73.06,762a3.92,3.92,0,0,0,0-3.47,3.09,3.09,0,0,0-1.14-1.21,3.34,3.34,0,0,0-3.28,0,3,3,0,0,0-1.15,1.21,3.9,3.9,0,0,0,0,3.48,3.09,3.09,0,0,0,2.79,1.63A3.12,3.12,0,0,0,71.92,763.22Z"/><path d="M85.54,756.46a3.76,3.76,0,0,1,.95,2.71v5.89H84.82v-5.44a2.55,2.55,0,0,0-.68-1.88,2.52,2.52,0,0,0-1.86-.68,2.88,2.88,0,0,0-2.2.94,3.45,3.45,0,0,0-.81,2.38v4.68H77.6V751.7h1.67v5.89a3.69,3.69,0,0,1,3.64-2.11A3.52,3.52,0,0,1,85.54,756.46Z"/><path d="M101.36,756.78a5.35,5.35,0,0,1,1.13,3.63c0,.24,0,.42,0,.54H95A3.28,3.28,0,0,0,96,763a3.18,3.18,0,0,0,2.15.75,4.12,4.12,0,0,0,1.58-.3,4,4,0,0,0,1.27-.87l.92,1a5,5,0,0,1-1.7,1.17,5.73,5.73,0,0,1-2.19.41,5,5,0,0,1-2.49-.6,4.34,4.34,0,0,1-1.7-1.7,5.17,5.17,0,0,1-.6-2.51,5.1,5.1,0,0,1,.6-2.49,4.41,4.41,0,0,1,1.69-1.71,4.89,4.89,0,0,1,2.46-.62A4.2,4.2,0,0,1,101.36,756.78Zm-.38,2.88a2.92,2.92,0,0,0-.86-2,3,3,0,0,0-2.09-.74,3,3,0,0,0-2.1.75,3.23,3.23,0,0,0-1,2Z"/><path d="M113.2,755.53v9.53h-1.69v-2a3.57,3.57,0,0,1-3.53,2.07,3.44,3.44,0,0,1-2.59-1,3.79,3.79,0,0,1-.93-2.71v-5.89h1.69V761a2.58,2.58,0,0,0,.66,1.88,2.39,2.39,0,0,0,1.8.68,2.7,2.7,0,0,0,2.12-.95,3.56,3.56,0,0,0,.78-2.37v-4.68Z"/><path d="M118,752a1.11,1.11,0,0,1,.29.78,1.08,1.08,0,0,1-.29.77,1.06,1.06,0,0,1-1.5,0,1,1,0,0,1-.29-.77,1.06,1.06,0,0,1,.29-.78,1.09,1.09,0,0,1,1.5,0Zm-1.58,3.49h1.68v9.53h-1.68Z"/><path d="M125.29,757.06a4.79,4.79,0,0,0-1.36-.21,2.26,2.26,0,0,0-1.21.28.92.92,0,0,0-.46.85.93.93,0,0,0,.51.87,7.53,7.53,0,0,0,1.56.61A12.24,12.24,0,0,1,126,760a3,3,0,0,1,1.07.85,2.62,2.62,0,0,1-.58,3.53,4.34,4.34,0,0,1-2.53.7,6.31,6.31,0,0,1-2.06-.34,4.79,4.79,0,0,1-1.68-1l.63-1.23a4.51,4.51,0,0,0,1.47.87,5,5,0,0,0,1.7.32,2.49,2.49,0,0,0,1.33-.31,1,1,0,0,0,.5-.93,1,1,0,0,0-.53-1,6.68,6.68,0,0,0-1.61-.65,11,11,0,0,1-1.56-.55,2.79,2.79,0,0,1-1-.82,2.22,2.22,0,0,1-.42-1.4,2.25,2.25,0,0,1,1-2,4.17,4.17,0,0,1,2.43-.67,6.18,6.18,0,0,1,1.7.24,5.54,5.54,0,0,1,1.45.66l-.61,1.28A6.2,6.2,0,0,0,125.29,757.06Z"/><path d="M144.54,756.47a3.75,3.75,0,0,1,.94,2.7v5.89h-1.69v-5.44a2.62,2.62,0,0,0-.66-1.89,2.38,2.38,0,0,0-1.81-.68,2.71,2.71,0,0,0-2.12,1,3.52,3.52,0,0,0-.78,2.36v4.7h-1.69v-5.44a2.66,2.66,0,0,0-.65-1.89,2.37,2.37,0,0,0-1.82-.68,2.74,2.74,0,0,0-2.13,1,3.52,3.52,0,0,0-.78,2.36v4.7h-1.68v-9.53h1.68v2a3.59,3.59,0,0,1,3.54-2,3.64,3.64,0,0,1,2.19.63,3.09,3.09,0,0,1,1.18,1.76,3.61,3.61,0,0,1,3.71-2.39A3.36,3.36,0,0,1,144.54,756.47Z"/><path d="M155,756.09a4.42,4.42,0,0,1,1.73,1.7,5.35,5.35,0,0,1,0,5A4.38,4.38,0,0,1,155,764.5a5.08,5.08,0,0,1-2.52.61,5.15,5.15,0,0,1-2.55-.61,4.42,4.42,0,0,1-1.73-1.7,5.37,5.37,0,0,1,0-5,4.42,4.42,0,0,1,1.73-1.7,5.15,5.15,0,0,1,2.55-.61A5.08,5.08,0,0,1,155,756.09Zm-4.19,1.28a3,3,0,0,0-1.13,1.2,3.65,3.65,0,0,0-.41,1.73,3.79,3.79,0,0,0,.41,1.77,2.88,2.88,0,0,0,1.13,1.19,3.2,3.2,0,0,0,1.67.43,3.11,3.11,0,0,0,1.64-.43,2.91,2.91,0,0,0,1.14-1.19,3.78,3.78,0,0,0,.4-1.77,3.65,3.65,0,0,0-.4-1.73,3,3,0,0,0-1.14-1.2,3.11,3.11,0,0,0-1.64-.43A3.2,3.2,0,0,0,150.76,757.37Z"/><path d="M168.52,751.7v13.36h-1.68v-1.89a3.77,3.77,0,0,1-1.45,1.46,4.23,4.23,0,0,1-2.11.52,4.51,4.51,0,0,1-2.39-.63,4.31,4.31,0,0,1-1.61-1.72,5.45,5.45,0,0,1-.57-2.53,5.33,5.33,0,0,1,.57-2.5,4.32,4.32,0,0,1,1.61-1.7,4.64,4.64,0,0,1,2.37-.61,4.32,4.32,0,0,1,2.14.51,3.59,3.59,0,0,1,1.44,1.45V751.7Zm-3.23,11.57a3.07,3.07,0,0,0,1.14-1.2,4,4,0,0,0,0-3.51,3.09,3.09,0,0,0-1.14-1.21,3.22,3.22,0,0,0-1.67-.43,3.09,3.09,0,0,0-2.81,1.66,3.66,3.66,0,0,0-.41,1.74,3.73,3.73,0,0,0,.41,1.75,3,3,0,0,0,1.15,1.2,3.17,3.17,0,0,0,1.66.44A3.23,3.23,0,0,0,165.29,763.27Z"/><path d="M181.71,764.43a4.17,4.17,0,0,1-2.23.7,2.55,2.55,0,0,1-1.84-.68,2.7,2.7,0,0,1-.7-2v-5.27h-1.35v-1.28h1.35V753.3h1.69v2.56h2.92v1.28h-2.92v5a1.79,1.79,0,0,0,.29,1.14,1.05,1.05,0,0,0,.86.34,3,3,0,0,0,1.48-.45Z"/><path d="M185.32,752a1.07,1.07,0,0,1,.3.78,1,1,0,0,1-.3.77,1,1,0,0,1-.75.31,1,1,0,0,1-.74-.31,1,1,0,0,1-.3-.77,1.07,1.07,0,0,1,.3-.78,1,1,0,0,1,.74-.3A1,1,0,0,1,185.32,752Zm-1.58,3.49h1.68v9.53h-1.68Z"/><path d="M196.6,756.46a3.76,3.76,0,0,1,1,2.71v5.89h-1.67v-5.44a2.55,2.55,0,0,0-.68-1.88,2.52,2.52,0,0,0-1.86-.68,2.92,2.92,0,0,0-2.08.82,3.25,3.25,0,0,0-.91,2.08v5.1h-1.67v-9.53h1.67v2a3.67,3.67,0,0,1,3.62-2.07A3.53,3.53,0,0,1,196.6,756.46Z"/><path d="M204.5,757a3.29,3.29,0,0,0-1.67.42,2.92,2.92,0,0,0-1.14,1.17,3.5,3.5,0,0,0-.41,1.74,3.64,3.64,0,0,0,.4,1.75,3,3,0,0,0,1.12,1.18,3.12,3.12,0,0,0,1.63.42,4.33,4.33,0,0,0,1.65-.3,3.25,3.25,0,0,0,1.23-.89l.95,1a4.19,4.19,0,0,1-1.65,1.24,5.59,5.59,0,0,1-2.26.43,4.88,4.88,0,0,1-2.46-.61,4.36,4.36,0,0,1-1.68-1.7,5.43,5.43,0,0,1,0-5,4.32,4.32,0,0,1,1.68-1.71,4.88,4.88,0,0,1,2.46-.61,5.91,5.91,0,0,1,2.17.37,4.1,4.1,0,0,1,1.61,1.07l-.91,1.15A3.8,3.8,0,0,0,204.5,757Z"/><path d="M212.23,752a1.07,1.07,0,0,1,.3.78,1,1,0,0,1-.3.77,1.06,1.06,0,0,1-1.5,0,1.08,1.08,0,0,1-.29-.77,1.11,1.11,0,0,1,.29-.78,1.09,1.09,0,0,1,1.5,0Zm-1.58,3.49h1.68v9.53h-1.68Z"/><path d="M224.46,751.7v13.36h-1.67v-1.89a3.84,3.84,0,0,1-1.45,1.46,4.3,4.3,0,0,1-2.12.52,4.48,4.48,0,0,1-2.38-.63,4.24,4.24,0,0,1-1.61-1.72,5.33,5.33,0,0,1-.58-2.53,5.21,5.21,0,0,1,.58-2.5,4.25,4.25,0,0,1,1.61-1.7,4.61,4.61,0,0,1,2.36-.61,4.38,4.38,0,0,1,2.15.51,3.59,3.59,0,0,1,1.44,1.45V751.7Zm-3.23,11.57a3,3,0,0,0,1.14-1.2,3.88,3.88,0,0,0,0-3.51,3,3,0,0,0-1.14-1.21,3.4,3.4,0,0,0-3.33,0,3,3,0,0,0-1.14,1.22,3.56,3.56,0,0,0-.42,1.74,3.62,3.62,0,0,0,.42,1.75,2.93,2.93,0,0,0,1.14,1.2,3.17,3.17,0,0,0,1.66.44A3.2,3.2,0,0,0,221.23,763.27Z"/><path d="M236.25,755.53v9.53h-1.69v-2a3.57,3.57,0,0,1-3.53,2.07,3.41,3.41,0,0,1-2.59-1,3.76,3.76,0,0,1-.94-2.71v-5.89h1.69V761a2.58,2.58,0,0,0,.66,1.88,2.41,2.41,0,0,0,1.81.68,2.68,2.68,0,0,0,2.11-.95,3.52,3.52,0,0,0,.79-2.37v-4.68Z"/><path d="M247.43,756.46a3.76,3.76,0,0,1,.95,2.71v5.89h-1.67v-5.44a2.55,2.55,0,0,0-.68-1.88,2.52,2.52,0,0,0-1.86-.68,2.92,2.92,0,0,0-2.08.82,3.25,3.25,0,0,0-.91,2.08v5.1h-1.67v-9.53h1.67v2a3.67,3.67,0,0,1,3.62-2.07A3.53,3.53,0,0,1,247.43,756.46Z"/><path d="M256.48,764.43a4.17,4.17,0,0,1-2.23.7,2.55,2.55,0,0,1-1.84-.68,2.7,2.7,0,0,1-.7-2v-5.27h-1.35v-1.28h1.35V753.3h1.69v2.56h2.92v1.28H253.4v5a1.79,1.79,0,0,0,.29,1.14,1.05,1.05,0,0,0,.86.34,3,3,0,0,0,1.48-.45Z"/><path d="M271.65,755.53v9.53H270v-2a3.57,3.57,0,0,1-3.53,2.07,3.44,3.44,0,0,1-2.59-1,3.79,3.79,0,0,1-.93-2.71v-5.89h1.69V761a2.58,2.58,0,0,0,.66,1.88,2.39,2.39,0,0,0,1.8.68,2.7,2.7,0,0,0,2.12-.95,3.56,3.56,0,0,0,.78-2.37v-4.68Z"/><path d="M280,764.43a4.15,4.15,0,0,1-2.23.7,2.52,2.52,0,0,1-1.83-.68,2.7,2.7,0,0,1-.71-2v-5.27H273.9v-1.28h1.35V753.3H277v2.56h2.91v1.28H277v5a1.8,1.8,0,0,0,.28,1.14,1.07,1.07,0,0,0,.87.34,3,3,0,0,0,1.47-.45Z"/><path d="M286.86,751.7h1.68v13.36h-1.68Z"/><path d="M297.72,765.06v-1.34a3.9,3.9,0,0,1-3.33,1.41,3.84,3.84,0,0,1-1.74-.38,2.77,2.77,0,0,1-1.15-1,2.86,2.86,0,0,1-.41-1.5,2.43,2.43,0,0,1,1-2,4.21,4.21,0,0,1,2.64-.77h3V759a2,2,0,0,0-.62-1.56,2.7,2.7,0,0,0-1.81-.54,5.17,5.17,0,0,0-2.93,1l-.71-1.15a8.69,8.69,0,0,1,1.9-1,6.43,6.43,0,0,1,2.08-.3,4,4,0,0,1,2.76.87,3.22,3.22,0,0,1,1,2.44v6.27Zm-1-1.89a2.22,2.22,0,0,0,1-1.5v-.95h-2.79a3.2,3.2,0,0,0-1.68.34,1.18,1.18,0,0,0-.55,1.08,1.39,1.39,0,0,0,.56,1.17,2.36,2.36,0,0,0,1.49.43A3.41,3.41,0,0,0,296.72,763.17Z"/><path d="M308.85,756.09a4.49,4.49,0,0,1,1.73,1.7,5.35,5.35,0,0,1,0,5,4.44,4.44,0,0,1-1.73,1.71,5.59,5.59,0,0,1-5.08,0,4.46,4.46,0,0,1-1.72-1.7,5.37,5.37,0,0,1,0-5,4.46,4.46,0,0,1,1.72-1.7,5.59,5.59,0,0,1,5.08,0Zm-4.19,1.28a3,3,0,0,0-1.14,1.2,3.65,3.65,0,0,0-.4,1.73,3.78,3.78,0,0,0,.4,1.77,2.91,2.91,0,0,0,1.14,1.19,3.4,3.4,0,0,0,3.31,0,3,3,0,0,0,1.13-1.19,3.79,3.79,0,0,0,.41-1.77,3.65,3.65,0,0,0-.41-1.73,3,3,0,0,0-1.13-1.2,3.4,3.4,0,0,0-3.31,0Z"/><path d="M316.55,756a3.87,3.87,0,0,1,2.05-.55v1.62a3.08,3.08,0,0,0-3.39,2.93v5h-1.67v-9.53h1.67v2.06A3.44,3.44,0,0,1,316.55,756Z"/><path d="M327.58,756.78a5.35,5.35,0,0,1,1.13,3.63c0,.24,0,.42,0,.54h-7.53a3.28,3.28,0,0,0,1.07,2,3.18,3.18,0,0,0,2.15.75,4.12,4.12,0,0,0,1.58-.3,4,4,0,0,0,1.27-.87l.92,1a5,5,0,0,1-1.7,1.17,5.73,5.73,0,0,1-2.19.41,5.11,5.11,0,0,1-2.5-.6,4.32,4.32,0,0,1-1.69-1.7,5.17,5.17,0,0,1-.6-2.51,5.1,5.1,0,0,1,.6-2.49,4.34,4.34,0,0,1,1.69-1.71,4.89,4.89,0,0,1,2.46-.62A4.2,4.2,0,0,1,327.58,756.78Zm-.38,2.88a2.92,2.92,0,0,0-.86-2,3,3,0,0,0-2.09-.74,3,3,0,0,0-2.1.75,3.18,3.18,0,0,0-1,2Z"/><path d="M338.16,756.78a5.35,5.35,0,0,1,1.14,3.63c0,.24,0,.42,0,.54h-7.52a3.23,3.23,0,0,0,1.07,2,3.18,3.18,0,0,0,2.15.75,4.07,4.07,0,0,0,1.57-.3,3.88,3.88,0,0,0,1.27-.87l.92,1a4.93,4.93,0,0,1-1.69,1.17,5.75,5.75,0,0,1-2.2.41,5.07,5.07,0,0,1-2.49-.6,4.25,4.25,0,0,1-1.69-1.7,5.07,5.07,0,0,1-.61-2.51,5,5,0,0,1,.61-2.49,4.32,4.32,0,0,1,1.68-1.71,4.9,4.9,0,0,1,2.47-.62A4.18,4.18,0,0,1,338.16,756.78Zm-.37,2.88a2.76,2.76,0,0,0-3-2.79,3,3,0,0,0-2.09.75,3.18,3.18,0,0,0-1,2Z"/><path d="M346.7,764.43a4.2,4.2,0,0,1-2.24.7,2.54,2.54,0,0,1-1.83-.68,2.7,2.7,0,0,1-.7-2v-5.27h-1.35v-1.28h1.35V753.3h1.69v2.56h2.91v1.28h-2.91v5a1.73,1.73,0,0,0,.29,1.14,1.05,1.05,0,0,0,.86.34,3,3,0,0,0,1.48-.45Z"/><path d="M25,773.3v13.36H23.29v-1.89a3.74,3.74,0,0,1-1.44,1.46,4.19,4.19,0,0,1-2.12.52,4.48,4.48,0,0,1-2.38-.63,4.33,4.33,0,0,1-1.62-1.72,5.45,5.45,0,0,1-.57-2.53,5.33,5.33,0,0,1,.57-2.5,4.35,4.35,0,0,1,1.62-1.7,4.61,4.61,0,0,1,2.36-.61,4.32,4.32,0,0,1,2.14.51A3.47,3.47,0,0,1,23.29,779V773.3Zm-3.23,11.57a3.07,3.07,0,0,0,1.14-1.2,4,4,0,0,0,0-3.51A3.09,3.09,0,0,0,21.74,779a3.4,3.4,0,0,0-3.33,0,3,3,0,0,0-1.14,1.22,3.56,3.56,0,0,0-.42,1.74,3.62,3.62,0,0,0,.42,1.75,2.93,2.93,0,0,0,1.14,1.2,3.17,3.17,0,0,0,1.66.44A3.2,3.2,0,0,0,21.74,784.87Z"/><path d="M34.82,777.69a4.42,4.42,0,0,1,1.73,1.7,5.35,5.35,0,0,1,0,5,4.38,4.38,0,0,1-1.73,1.71,5.57,5.57,0,0,1-5.07,0A4.42,4.42,0,0,1,28,784.4a5.37,5.37,0,0,1,0-5,4.42,4.42,0,0,1,1.73-1.7,5.57,5.57,0,0,1,5.07,0ZM30.63,779a3,3,0,0,0-1.13,1.2,3.65,3.65,0,0,0-.41,1.73,3.79,3.79,0,0,0,.41,1.77,3,3,0,0,0,1.13,1.2,3.28,3.28,0,0,0,1.66.42,3.21,3.21,0,0,0,1.65-.42,3,3,0,0,0,1.14-1.2,3.78,3.78,0,0,0,.4-1.77,3.65,3.65,0,0,0-.4-1.73,3,3,0,0,0-1.14-1.2,3.12,3.12,0,0,0-1.65-.43A3.19,3.19,0,0,0,30.63,779Z"/><path d="M39.6,773.3h1.68v13.36H39.6Z"/><path d="M51.13,777.69a4.42,4.42,0,0,1,1.73,1.7,5.35,5.35,0,0,1,0,5,4.38,4.38,0,0,1-1.73,1.71,5.57,5.57,0,0,1-5.07,0,4.42,4.42,0,0,1-1.73-1.7,5.37,5.37,0,0,1,0-5,4.42,4.42,0,0,1,1.73-1.7,5.57,5.57,0,0,1,5.07,0ZM46.94,779a3,3,0,0,0-1.14,1.2,3.65,3.65,0,0,0-.4,1.73,3.78,3.78,0,0,0,.4,1.77,3,3,0,0,0,1.14,1.2,3.47,3.47,0,0,0,3.31,0,3,3,0,0,0,1.13-1.2,3.79,3.79,0,0,0,.41-1.77,3.65,3.65,0,0,0-.41-1.73,3,3,0,0,0-1.13-1.2,3.4,3.4,0,0,0-3.31,0Z"/><path d="M58.83,777.63a4,4,0,0,1,2.05-.55v1.62a3.08,3.08,0,0,0-3.39,2.93v5H55.82v-9.53h1.67v2.06A3.44,3.44,0,0,1,58.83,777.63Z"/><path d="M69.86,778.38A5.35,5.35,0,0,1,71,782c0,.24,0,.42,0,.54H63.45a3.28,3.28,0,0,0,1.07,2,3.18,3.18,0,0,0,2.15.75,4.12,4.12,0,0,0,1.58-.3,4,4,0,0,0,1.27-.87l.92,1a5,5,0,0,1-1.7,1.17,5.73,5.73,0,0,1-2.19.41,5,5,0,0,1-2.49-.6,4.34,4.34,0,0,1-1.7-1.7,5.17,5.17,0,0,1-.6-2.51,5.1,5.1,0,0,1,.6-2.49,4.55,4.55,0,0,1,1.69-1.71,4.89,4.89,0,0,1,2.46-.62A4.23,4.23,0,0,1,69.86,778.38Zm-.38,2.88a2.92,2.92,0,0,0-.86-2,3,3,0,0,0-2.09-.74,3,3,0,0,0-2.1.75,3.23,3.23,0,0,0-1,2Z"/><path d="M92.86,778.07a3.75,3.75,0,0,1,.94,2.7v5.89H92.11v-5.44a2.62,2.62,0,0,0-.66-1.89,2.38,2.38,0,0,0-1.81-.68,2.71,2.71,0,0,0-2.12,1,3.52,3.52,0,0,0-.78,2.36v4.7H85.05v-5.44a2.62,2.62,0,0,0-.65-1.89,2.35,2.35,0,0,0-1.81-.68,2.78,2.78,0,0,0-2.14,1,3.52,3.52,0,0,0-.78,2.36v4.7H78v-9.53h1.67v2a4.09,4.09,0,0,1,5.73-1.42,3.09,3.09,0,0,1,1.18,1.76,3.61,3.61,0,0,1,3.71-2.39A3.36,3.36,0,0,1,92.86,778.07Z"/><path d="M102.6,786.66v-1.34a3.9,3.9,0,0,1-3.33,1.41,3.84,3.84,0,0,1-1.74-.38A2.74,2.74,0,0,1,96,783.81a2.44,2.44,0,0,1,.94-2,4.21,4.21,0,0,1,2.64-.77h3v-.45A1.93,1.93,0,0,0,102,779a2.61,2.61,0,0,0-1.81-.55,5.2,5.2,0,0,0-2.93,1l-.7-1.15a8.69,8.69,0,0,1,1.9-1,6.39,6.39,0,0,1,2.08-.3,4,4,0,0,1,2.75.87,3.17,3.17,0,0,1,1,2.44l0,6.27Zm-1-1.88a2.2,2.2,0,0,0,1-1.51v-.95H99.79a3.25,3.25,0,0,0-1.68.34,1.18,1.18,0,0,0-.55,1.08,1.41,1.41,0,0,0,.56,1.17,2.36,2.36,0,0,0,1.49.43A3.45,3.45,0,0,0,101.6,784.78Z"/><path d="M115.67,777.13v8.55a4.67,4.67,0,0,1-.6,2.4,4,4,0,0,1-1.7,1.57,5.64,5.64,0,0,1-2.56.55,6.49,6.49,0,0,1-3.92-1.33l.73-1.22a5.09,5.09,0,0,0,1.46.85,4.7,4.7,0,0,0,1.66.28,3.33,3.33,0,0,0,2.36-.83,2.91,2.91,0,0,0,.88-2.21v-1.33a3.6,3.6,0,0,1-1.37,1.34,4,4,0,0,1-2,.47,4.32,4.32,0,0,1-2.26-.58,4,4,0,0,1-1.52-1.63,5.13,5.13,0,0,1-.54-2.39,5,5,0,0,1,.54-2.36,3.91,3.91,0,0,1,1.52-1.6,4.32,4.32,0,0,1,2.26-.58,4.09,4.09,0,0,1,2,.47,3.47,3.47,0,0,1,1.36,1.33v-1.75Zm-3.15,7.33a2.94,2.94,0,0,0,1.07-1.14,3.46,3.46,0,0,0,.39-1.65,3.52,3.52,0,0,0-.39-1.67,2.94,2.94,0,0,0-1.07-1.14,3.21,3.21,0,0,0-3.14,0,3,3,0,0,0-1.09,1.14,3.52,3.52,0,0,0-.4,1.67,3.29,3.29,0,0,0,.87,2.3,2.86,2.86,0,0,0,2.19.9A2.94,2.94,0,0,0,112.52,784.46Z"/><path d="M126.65,778.06a3.72,3.72,0,0,1,.95,2.71v5.89h-1.67v-5.44a2.55,2.55,0,0,0-.68-1.88,2.52,2.52,0,0,0-1.86-.68,2.94,2.94,0,0,0-2.08.82,3.3,3.3,0,0,0-.91,2.08v5.1h-1.67v-9.53h1.67v2a3.68,3.68,0,0,1,3.62-2.07A3.52,3.52,0,0,1,126.65,778.06Z"/><path d="M136.41,786.66v-1.34a3.9,3.9,0,0,1-3.33,1.41,3.84,3.84,0,0,1-1.74-.38,2.77,2.77,0,0,1-1.15-1,2.86,2.86,0,0,1-.41-1.5,2.44,2.44,0,0,1,.95-2,4.2,4.2,0,0,1,2.63-.77h3v-.45a2,2,0,0,0-.62-1.55,2.65,2.65,0,0,0-1.81-.55,5.23,5.23,0,0,0-2.94,1l-.7-1.15a9.16,9.16,0,0,1,1.9-1,6.43,6.43,0,0,1,2.08-.3,4,4,0,0,1,2.75.87,3.17,3.17,0,0,1,1,2.44l0,6.27Zm-1-1.88a2.27,2.27,0,0,0,1-1.51v-.95H133.6a3.26,3.26,0,0,0-1.69.34,1.19,1.19,0,0,0-.54,1.08,1.41,1.41,0,0,0,.55,1.17,2.39,2.39,0,0,0,1.5.43A3.48,3.48,0,0,0,135.41,784.78Z"/><path d="M151.58,786.66v-1.34a3.9,3.9,0,0,1-3.33,1.41,3.84,3.84,0,0,1-1.74-.38,2.77,2.77,0,0,1-1.15-1,2.86,2.86,0,0,1-.4-1.5,2.44,2.44,0,0,1,.94-2,4.21,4.21,0,0,1,2.64-.77h3v-.45a2,2,0,0,0-.62-1.55,2.63,2.63,0,0,0-1.81-.55,5.17,5.17,0,0,0-2.93,1l-.7-1.15a8.87,8.87,0,0,1,1.89-1,6.48,6.48,0,0,1,2.08-.3,4,4,0,0,1,2.76.87,3.17,3.17,0,0,1,1,2.44l0,6.27Zm-1-1.88a2.23,2.23,0,0,0,1-1.51v-.95h-2.79a3.22,3.22,0,0,0-1.68.34,1.18,1.18,0,0,0-.55,1.08,1.41,1.41,0,0,0,.56,1.17,2.36,2.36,0,0,0,1.49.43A3.48,3.48,0,0,0,150.58,784.78Z"/><path d="M156.31,773.3H158v13.36h-1.68Z"/><path d="M162.93,773.64a1.07,1.07,0,0,1,.3.78,1,1,0,0,1-.3.77,1.06,1.06,0,0,1-1.5,0,1.08,1.08,0,0,1-.29-.77,1.11,1.11,0,0,1,.29-.78,1.09,1.09,0,0,1,1.5,0Zm-1.58,3.49H163v9.53h-1.68Z"/><path d="M175.16,777.13v13h-1.68v-5.38a3.74,3.74,0,0,1-1.44,1.46,4.19,4.19,0,0,1-2.12.52,4.48,4.48,0,0,1-2.38-.63,4.33,4.33,0,0,1-1.62-1.72,5.45,5.45,0,0,1-.57-2.53,5.33,5.33,0,0,1,.57-2.5,4.35,4.35,0,0,1,1.62-1.7,4.61,4.61,0,0,1,2.36-.61,4.32,4.32,0,0,1,2.14.51,3.47,3.47,0,0,1,1.44,1.45v-1.89Zm-3.23,7.74a3.07,3.07,0,0,0,1.14-1.2,4,4,0,0,0,0-3.51,3.09,3.09,0,0,0-1.14-1.21,3.4,3.4,0,0,0-3.33,0,3,3,0,0,0-1.14,1.22,3.56,3.56,0,0,0-.42,1.74,3.62,3.62,0,0,0,.42,1.75,2.93,2.93,0,0,0,1.14,1.2,3.17,3.17,0,0,0,1.66.44A3.2,3.2,0,0,0,171.93,784.87Z"/><path d="M187,777.13v9.53h-1.69v-2a3.57,3.57,0,0,1-3.53,2.07,3.41,3.41,0,0,1-2.59-1,3.74,3.74,0,0,1-.94-2.71v-5.89h1.69v5.44a2.58,2.58,0,0,0,.66,1.88,2.41,2.41,0,0,0,1.81.68,2.68,2.68,0,0,0,2.11-1,3.52,3.52,0,0,0,.79-2.37v-4.68Z"/><path d="M196,786.66v-1.34a3.9,3.9,0,0,1-3.33,1.41,3.84,3.84,0,0,1-1.74-.38,2.74,2.74,0,0,1-1.55-2.54,2.44,2.44,0,0,1,.94-2A4.21,4.21,0,0,1,193,781h3v-.45a1.93,1.93,0,0,0-.62-1.55,2.63,2.63,0,0,0-1.81-.55,5.17,5.17,0,0,0-2.93,1l-.7-1.15a8.69,8.69,0,0,1,1.9-1,6.37,6.37,0,0,1,2.07-.3,4,4,0,0,1,2.76.87,3.17,3.17,0,0,1,1,2.44l0,6.27Zm-1-1.88a2.23,2.23,0,0,0,1-1.51v-.95h-2.79a3.25,3.25,0,0,0-1.68.34,1.18,1.18,0,0,0-.55,1.08,1.41,1.41,0,0,0,.56,1.17,2.36,2.36,0,0,0,1.49.43A3.45,3.45,0,0,0,195,784.78Z"/><path d="M215.53,778.07a3.75,3.75,0,0,1,.94,2.7v5.89h-1.69v-5.44a2.62,2.62,0,0,0-.66-1.89,2.38,2.38,0,0,0-1.81-.68,2.71,2.71,0,0,0-2.12,1,3.52,3.52,0,0,0-.78,2.36v4.7h-1.69v-5.44a2.66,2.66,0,0,0-.65-1.89,2.37,2.37,0,0,0-1.82-.68,2.74,2.74,0,0,0-2.13,1,3.52,3.52,0,0,0-.78,2.36v4.7h-1.68v-9.53h1.68v2a3.59,3.59,0,0,1,3.54-2,3.64,3.64,0,0,1,2.19.63,3.09,3.09,0,0,1,1.18,1.76,3.61,3.61,0,0,1,3.71-2.39A3.36,3.36,0,0,1,215.53,778.07Z"/><path d="M231.34,778.38a5.4,5.4,0,0,1,1.13,3.63c0,.24,0,.42,0,.54h-7.52a3.28,3.28,0,0,0,1.07,2,3.18,3.18,0,0,0,2.15.75,4.15,4.15,0,0,0,1.58-.3,4,4,0,0,0,1.26-.87l.92,1a4.93,4.93,0,0,1-1.69,1.17,5.75,5.75,0,0,1-2.2.41,5.1,5.1,0,0,1-2.49-.6,4.32,4.32,0,0,1-1.69-1.7,5.17,5.17,0,0,1-.6-2.51,5.1,5.1,0,0,1,.6-2.49,4.45,4.45,0,0,1,1.68-1.71,4.9,4.9,0,0,1,2.47-.62A4.24,4.24,0,0,1,231.34,778.38Zm-.38,2.88a2.76,2.76,0,0,0-3-2.79,3,3,0,0,0-2.1.75,3.18,3.18,0,0,0-1,2Z"/><path d="M237.76,777.63a4,4,0,0,1,2.05-.55v1.62a3.07,3.07,0,0,0-3.38,2.93v5h-1.67v-9.53h1.67v2.06A3.42,3.42,0,0,1,237.76,777.63Z"/><path d="M247,786.66v-1.34a3.9,3.9,0,0,1-3.33,1.41,3.84,3.84,0,0,1-1.74-.38,2.74,2.74,0,0,1-1.55-2.54,2.44,2.44,0,0,1,.94-2A4.21,4.21,0,0,1,244,781h3v-.45a1.93,1.93,0,0,0-.62-1.55,2.61,2.61,0,0,0-1.81-.55,5.2,5.2,0,0,0-2.93,1l-.7-1.15a8.69,8.69,0,0,1,1.9-1,6.39,6.39,0,0,1,2.08-.3,4,4,0,0,1,2.75.87,3.17,3.17,0,0,1,1,2.44l0,6.27Zm-1-1.88a2.2,2.2,0,0,0,1-1.51v-.95h-2.79a3.25,3.25,0,0,0-1.68.34,1.18,1.18,0,0,0-.55,1.08,1.41,1.41,0,0,0,.56,1.17,2.36,2.36,0,0,0,1.49.43A3.45,3.45,0,0,0,246,784.78Z"/><path d="M256.79,786a4.17,4.17,0,0,1-2.23.7,2.55,2.55,0,0,1-1.84-.68,2.7,2.7,0,0,1-.7-2v-5.27h-1.35v-1.28H252V774.9h1.69v2.56h2.92v1.28h-2.92v5a1.79,1.79,0,0,0,.29,1.14,1.05,1.05,0,0,0,.86.34,3,3,0,0,0,1.48-.45Z"/><g id="Calque_77" data-name="Calque 77"><path class="cls-25" d="M1672.86,70.21h30.85V66.35h-30.85Zm0-15.43h30.85V50.92h-30.85Zm47.25,13.5a2.75,2.75,0,0,0-.85-2,2.89,2.89,0,0,0-4.09,0,2.75,2.75,0,0,0-.85,2,2.9,2.9,0,1,0,5.79,0Zm0-15.43a2.89,2.89,0,1,0-.85,2A2.77,2.77,0,0,0,1720.11,52.85Zm2.89,9.64V74.06h-54V62.49Zm0-15.43V58.63h-54V47.06Z"/><path class="cls-26" d="M1672.86,39.07h30.85V35.21h-30.85Zm0-15.43h30.85V19.79h-30.85Zm47.25,13.5a2.9,2.9,0,1,0-5.79,0,2.75,2.75,0,0,0,.85,2,2.89,2.89,0,0,0,4.09,0A2.75,2.75,0,0,0,1720.11,37.14ZM1672.86,8.21h30.85V4.36h-30.85Zm47.25,13.5a2.9,2.9,0,1,0-.85,2.05A2.75,2.75,0,0,0,1720.11,21.71Zm0-15.42a2.75,2.75,0,0,0-.85-2,2.89,2.89,0,0,0-4.09,0,2.75,2.75,0,0,0-.85,2.05,2.75,2.75,0,0,0,.85,2,2.89,2.89,0,0,0,4.09,0A2.75,2.75,0,0,0,1720.11,6.29ZM1723,31.36V42.93h-54V31.36Zm0-15.43V27.5h-54V15.93ZM1723,.5V12.07h-54V.5Z"/></g></g></g></svg>