<svg xmlns="http://www.w3.org/2000/svg" viewBox="0 0 183.5 60"><defs><style>.cls-1{fill:#f2f2f2;opacity:0.3;}.cls-1,.cls-2,.cls-3{stroke:#000;stroke-miterlimit:10;}.cls-2{fill:#b3b3b3;}.cls-3{fill:red;}</style></defs><title>Fichier 5</title><g id="Calque_2" data-name="Calque 2"><g id="Calque_76" data-name="Calque 76"><rect class="cls-1" x="0.5" y="0.5" width="182.5" height="59"/><path class="cls-2" d="M161.77,9a13.91,13.91,0,0,0-12.31-.22c-3.86,1.71-6.64,5.47-8.28,8.29A1.64,1.64,0,0,0,139.71,20c-.15.33-.24.56-.27.64l-8,17.54a1.64,1.64,0,0,0-1.41,3l.05,0-1.8,4h-4.46a1.65,1.65,0,1,0,0,3.3h8.24a1.65,1.65,0,1,0,0-3.3h-.16l1.15-2.51a1.41,1.41,0,0,0,.45.07,1.64,1.64,0,0,0,.89-3l8.27-18.17a1.72,1.72,0,0,0,.69.15,1.64,1.64,0,0,0,.81-3.07c1.41-2.38,3.67-5.38,6.62-6.68,3.18-1.4,6.84-1.38,9.33.06a6.21,6.21,0,0,1,3.13,5c.46,4.24.07,7.08-1.16,8.44a2.31,2.31,0,0,1-.36.34v3.69a6.46,6.46,0,0,0,2.82-1.83c1.9-2.12,2.55-5.71,2-11A9.63,9.63,0,0,0,161.77,9Z"/><path class="cls-2" d="M157.07,36.83a7.17,7.17,0,0,1,3,.67v-13c0-.92.09-.83-.82-.83H156c-.91,0-10.09.76-12.52,12.75L142,46.31c0,.91.73,2.06,1.64,2.06h7.82a7.16,7.16,0,0,1,5.65-11.54Z"/><path class="cls-2" d="M160.91,40a5.23,5.23,0,0,0-.83-.66,5.44,5.44,0,0,0-3-.9,5.51,5.51,0,0,0-1.8,10.71,5.41,5.41,0,0,0,3.61,0,5.65,5.65,0,0,0,1.6-.87,5.75,5.75,0,0,0,1.16-1.25,5.5,5.5,0,0,0,.09-6A5.82,5.82,0,0,0,160.91,40Zm-3.84,1.19A2.76,2.76,0,1,1,154.31,44,2.76,2.76,0,0,1,157.07,41.23Z"/><path class="cls-3" d="M52.49,25l-12.4,12.4a7.79,7.79,0,1,1-11-11L41.47,14,36,8.5,23.56,20.9a15.58,15.58,0,0,0,22,22L58,30.54ZM36,11.26,38.71,14l-4.13,4.13-2.76-2.75ZM48.36,31.92l4.13-4.13,2.75,2.75-4.13,4.13Z"/><path class="cls-3" d="M108.49,25l-12.4,12.4a7.79,7.79,0,0,1-11-11L97.47,14,92,8.5,79.56,20.9a15.58,15.58,0,0,0,22,22L114,30.54ZM92,11.26,94.71,14l-4.13,4.13-2.76-2.75Zm12.41,20.66,4.13-4.13,2.75,2.75-4.13,4.13Z"/></g></g></svg>