<?xml version="1.0" encoding="utf-8"?>
<!-- Generator: Adobe Illustrator 22.1.0, SVG Export Plug-In . SVG Version: 6.00 Build 0)  -->
<svg version="1.1" id="Calque_1" xmlns="http://www.w3.org/2000/svg" xmlns:xlink="http://www.w3.org/1999/xlink" x="0px" y="0px"
	 viewBox="0 0 612 792" style="enable-background:new 0 0 612 792;" xml:space="preserve">
<style type="text/css">
	.st0{fill:#FFE800;}
</style>
<g>
	<path class="st0" d="M206.5,522.8c0.3-0.4,0.7-0.9,1.1-1.4c3.4-5,6.7-10.1,10.1-15.1c4.1-6.1,8.4-12.1,12.5-18.2
		c3.4-5.1,6.7-10.3,10.1-15.4c1.5-2.3,3.2-4.6,4.6-6.5c0.3-2-0.3-3.3-1-4.7c-6.7-13.3-11.9-27.2-15.2-41.8c-1.1-5.1-2-10.3-2.8-15.4
		c-0.3-2-0.9-3.8-1.7-5.5c-0.8-0.6-1.6-0.5-2.5-0.5c-3.8,0-7.7,0-11.5,0c-12.4,0-24.8,0-37.3,0c-1.1,0-2.2-0.2-3.4,0.5
		c-0.8,1.6-1.5,3.3-1.8,5.3c-3.1,20.3-12,37.6-27.4,51.3c-2.5,2.2-5.4,4-8,6.1c-2.1,1.5-4.1,1.4-6.2,0c-6.2-4.1-11.7-9-16.4-14.7
		c-10.4-12.7-16.7-27.1-18.9-43.3c-1.3-9.7-0.8-19.4,2.2-28.8c2.5-7.6,6.4-14.3,12.5-19.6c6.3-5.4,13.8-8.1,22.1-8.4
		c4.9-0.2,9.7,0.3,14.4,1.9c8.6,3,14.9,8.7,19.5,16.5c3.6,6.1,5.6,12.8,6.5,19.8c0.3,2.5,0.4,5,0.6,7.5c0,0.6,0.1,1.3,0.2,1.9
		c0.4,0.2,0.6,0.4,0.8,0.4c17.8,0,35.7-0.1,53.5-0.2c0.4,0,0.9-0.2,1.4-0.3c0.1-0.7,0.2-1.3,0.2-2c0-4.4-0.2-8.8-0.1-13.2
		c0.5-17,3.8-33.4,11.2-48.8c4.2-8.8,9.7-16.8,16.7-23.7c1.5-1.4,2.5-3,2.3-5.4c-1.7-2.6-3.5-5.3-5.3-8c-7.3-11-14.6-21.9-21.9-32.9
		c-2.1-3.1-4-6.3-6.1-9.4c-0.9-1.3-1.8-2.6-2.8-3.9c-0.5-0.7-1.2-1.2-2.2-1.1c-1.3,0.4-2,1.5-2.7,2.7c-3.7,6.1-8,11.7-13.1,16.7
		c-3.8,3.7-7.9,6.9-12.2,9.4c-2.1,0.7-3.6,0.1-5.2-0.9c-8.2-5.3-14.9-12.1-20.4-20.1c-8.3-12-13.4-25.2-14.9-39.7
		c-1.1-10.4-0.2-20.7,3.8-30.6c2.1-5.1,5-9.8,8.9-13.8c5.8-5.8,12.8-9.2,21-10.2c5.8-0.7,11.6-0.3,17.2,1.5
		c8.8,2.9,15.3,8.7,20,16.6c3.2,5.5,5.2,11.4,6.2,17.6c2.1,12.6,0.5,24.9-3.6,37c-0.7,1.9-1.4,3.9-2.2,5.8c-0.6,1.4-0.5,2.7,0.3,4
		c2,3,4,6.1,5.9,9.2c4.8,7.3,9.6,14.5,14.3,21.7c5.5,8.4,10.9,16.7,16.3,25.1c0.5,0.7,1,1.4,1.4,1.9c1.3,0.5,2.3,0.2,3.3-0.5
		c1.7-1.2,3.4-2.4,5.1-3.4c9-5.6,18.9-9,29.4-10.2c9-1.1,17.9-1,26.8,0.5c10.6,1.8,20.2,5.8,29.1,11.9c0.6,0.4,1.2,0.9,1.8,1.3
		c0.8,0.6,0.8,0.6,2.6,0.7c1.1-0.3,1.6-1.3,2.1-2.1c8.3-12.3,16.5-24.6,24.8-36.9c3-4.5,6.1-8.9,9.1-13.4c1.5-2.2,2.8-4.4,4.2-6.4
		c-0.2-2.1-0.7-4-1.4-5.8c-4.5-11.2-6.5-22.8-5.7-34.8c0.5-8.3,2.6-16.2,6.8-23.5c4.4-7.7,10.6-13.4,19.1-16.5
		c3.8-1.4,7.7-2.1,11.8-2.2c4.8-0.1,9.5,0.4,14.1,2c8.6,3,14.9,8.7,19.5,16.5c3.2,5.5,5.2,11.4,6.2,17.6c1.8,11.1,0.8,22-2.3,32.7
		c-4.5,15.6-12.6,29.1-24.9,39.9c-2.5,2.2-5.4,4.1-8,6.1c-2.1,1.6-4.2,1.6-6.4,0.1c-6-3.9-11.2-8.6-15.9-14.1
		c-2.8-3.4-5.4-6.9-7.6-10.7c-0.9-1.6-2.1-3-3.5-4.3c-1.2,0.4-1.7,1.4-2.3,2.4c-6.6,9.9-13.3,19.9-19.9,29.8
		c-3.1,4.6-6.2,9.1-9.3,13.7c-1.6,2.3-3,4.7-4.5,7.1c-0.6,0.9-1.2,1.7-1.8,2.5c-0.6,0.8-1.2,1.7-1.1,3c0.7,1.2,1.2,2.7,2.4,3.8
		c8.9,8.7,15.3,19,20,30.5c3.4,8.3,5.7,17,7.2,25.9c1.6,9.4,1.9,18.9,1.7,28.5c0,0.9-0.3,1.9,0.4,2.7c0.7,0.8,1.7,0.7,2.6,0.7
		c5.1,0,10.3,0.3,15.4-0.1c11-0.8,22-0.2,33-0.4c1,0,2.1,0.2,3.1-0.7c0.5-0.9,0.3-2,0.3-3.1c0.1-5.7,1.1-11.3,2.9-16.8
		c2.5-7.6,6.5-14.2,12.7-19.4c5.3-4.4,11.4-7,18.3-7.8c5.9-0.7,11.8-0.3,17.4,1.6c8.8,2.9,15.3,8.8,19.9,16.7
		c3.2,5.5,5.1,11.4,6.1,17.6c1.8,11.1,0.8,22-2.3,32.7c-4.1,14.2-11.3,26.6-21.8,37c-3.8,3.8-8,7-12.5,9.7c-1.9,0.7-3.5,0.1-5.1-0.9
		c-7.4-4.8-13.6-10.8-18.8-17.9c-8.9-11.9-14.3-25.3-16.4-40c-0.2-1.5-0.8-3-1.2-4.4c-1.2-0.8-2.2-0.5-3.2-0.5c-6.4,0-12.9,0-19.3,0
		c-9.2,0-18.3,0-27.5,0c-1.2,0-2.4-0.2-3.6,0.7c-0.8,1.4-1.4,2.8-1.6,4.6c-1.1,10.5-3.3,20.8-6.4,31c-2.9,9.7-6.7,19-11.1,28.1
		c-0.9,1.8-1.4,3.8-2.1,5.9c12.1,18.7,24.5,37.1,36.9,55.5c0.2,0.3,0.6,0.5,1,0.8c1.6-0.6,3.3-1.2,4.9-1.9c4.5-2,9.2-3,14.1-3.1
		c4.8-0.1,9.5,0.4,14.1,2c8.5,3,14.8,8.6,19.3,16.3c3.7,6.2,5.7,13,6.6,20.1c1.6,12.8-0.3,25.1-4.8,37.1
		c-4.9,13-12.3,24.3-22.9,33.4c-2.5,2.1-5.2,3.9-7.8,5.9c-2.1,1.6-4.2,1.5-6.4,0.1c-6.5-4.3-12.2-9.5-17.1-15.6
		c-9.9-12.4-16-26.5-18.1-42.2c-1.2-8.3-0.9-16.6,1-24.8c2.1-8.7,6-16.5,12.5-22.7c0.3-0.3,0.7-0.7,0.9-1c0.2-0.2,0.2-0.5,0.3-0.8
		c-0.2-1.5-1.3-2.6-2.1-3.8c-1.9-3-4-5.9-5.9-8.8c-1.3-2-2.6-4.1-4-6.1c-2.2-3.3-4.4-6.5-6.5-9.8c-5-7.8-10-15.5-15-23.3
		c-0.7-1.1-1.6-2.1-2.4-3.2c-0.6,0.1-1.1,0.2-1.7,0.2c-0.5,0.8-1,1.6-1.5,2.4c-7.7,12.9-16.8,24.7-27.5,35.2
		c-6.7,6.5-14,12.4-21.8,17.5c-2,1.3-4,2.3-6.4,2.3c-1.5,0-2.9-0.3-4.2-1.1c-9.5-5.6-18.2-12.4-26.2-20.1
		c-10.6-10.2-19.7-21.7-27.4-34.3c-1.1-1.8-2.4-3.5-4.2-4.9c-1.2,0.4-1.8,1.5-2.5,2.5c-4,6-8,12-12,17.9
		c-4.2,6.4-8.5,12.8-12.7,19.1c-2.8,4.2-5.7,8.3-8.5,12.5c-0.7,1.1-1.4,2.2-1.8,3.6c0.9,1.1,1.7,2.4,2.7,3.4
		c7.4,7.3,11.3,16.4,12.9,26.5c2,12.3,0.5,24.2-3.4,35.9c-4.3,13-11.2,24.4-21.1,34c-3.8,3.7-7.9,6.9-12.2,9.4
		c-2.1,0.7-3.6,0.1-5.2-0.9c-8.2-5.3-14.9-12.2-20.4-20.1c-8.3-12-13.4-25.2-14.9-39.7c-1.1-10.4-0.2-20.7,3.8-30.6
		c2.1-5.1,5-9.8,9-13.8c5.8-5.8,12.8-9.2,21-10.2c6.6-0.8,13-0.1,19.3,2.3c1,0.4,2,0.9,3.1,1.4C204.7,522.7,205.5,523.1,206.5,522.8
		z M329.2,381.7c-0.1-12.2-10.1-22.6-22.5-22.5c-13.5,0.1-22.5,11.3-22.4,22.5c0.1,11.3,8.8,22.4,22.5,22.4
		C320.4,404.1,329,393.8,329.2,381.7z M197.1,204.9c0-5.8-4.8-10.6-10.5-10.6c-5.9,0-10.7,4.6-10.7,10.7c0,5.8,4.8,10.5,10.6,10.5
		C192.4,215.6,197.2,210.9,197.1,204.9z M494.2,391.5c0-5.8-4.8-10.6-10.6-10.5c-5.9,0.1-10.7,4.7-10.7,10.7
		c0,5.8,4.9,10.5,10.6,10.5C489.6,402.3,494.3,397.5,494.2,391.5z M197.1,564.4c0-5.8-4.7-10.7-10.4-10.7
		c-5.5-0.1-10.7,4.1-10.8,10.6c-0.1,5.8,4.7,10.6,10.4,10.7C192.3,575,197.1,570.3,197.1,564.4z M427.6,193.5
		c-5-0.1-10.5,3.8-10.6,10.4c-0.1,5.8,4.2,10.6,10.6,10.8c5.9,0.2,10.6-4.8,10.6-10.7C438.1,198.2,433.4,193.5,427.6,193.5z
		 M118.5,392.5c0.1,5.8,4.8,10.6,10.5,10.6c5.8,0.1,10.7-4.9,10.7-10.7c0-5.9-4.9-10.6-10.8-10.6C123.1,382,118.4,386.7,118.5,392.5
		z M416.7,565c0,5.9,4.9,10.8,10.7,10.8c5.7,0,10.5-4.8,10.6-10.6c0.1-5.9-4.8-10.7-10.7-10.7C421.4,554.5,416.7,559.3,416.7,565z"
		/>
</g>
</svg>
