<?xml version="1.0" encoding="utf-8"?>
<!-- Generator: Adobe Illustrator 22.1.0, SVG Export Plug-In . SVG Version: 6.00 Build 0)  -->
<svg version="1.1" id="Calque_1" xmlns="http://www.w3.org/2000/svg" xmlns:xlink="http://www.w3.org/1999/xlink" x="0px" y="0px"
	 viewBox="0 0 612 792" style="enable-background:new 0 0 612 792;" xml:space="preserve">
<style type="text/css">
	.st0{fill:#FFE800;}
</style>
<g>
	<path class="st0" d="M393.7,381c0,23.5-3.6,43-10.2,62c-5.8,16.7-13.8,32.4-23.9,46.9c-11.4,16.3-25.1,30.5-41.6,41.7
		c-1.4,0.9-2.7,2-4.1,2.8c-2.9,1.5-6,1.9-9,0.2c-11.1-6.4-21-14.4-30-23.4c-12.9-12.9-23.5-27.5-32.1-43.6
		c-7.7-14.4-13.4-29.5-17.3-45.4c-4-16.6-5.6-33.4-4.5-50.4c1.1-15.8,4.6-30.9,11.6-45.2c5.6-11.4,13-21.4,22.8-29.5
		c10.5-8.6,22.5-14,35.9-16.4c7-1.2,14-1.5,21-1.2c17.5,0.9,33.2,6.7,46.7,18.2c10.5,8.9,18.2,19.9,23.8,32.3
		c4.8,10.7,7.8,21.9,9.5,33.5C393.3,370.4,393.7,377.4,393.7,381z M283.1,380.4c-0.3,12.4,9.2,24.1,23.5,24.2
		c14.1,0.1,23.7-10.5,23.8-23.5c0.1-14.2-11.6-23.8-23.3-23.8C293.3,357.1,283.3,368.2,283.1,380.4z"/>
	<path class="st0" d="M489.5,466.7c-0.2,0.1-0.5,0.3-0.8,0.3c-21.5,0-43,0-64.5-0.1c-0.3,0-0.5-0.1-1-0.3c0.5-1,1-2,1.5-2.9
		c8.1-14.5,16.2-29,24.4-43.5c2-3.6,4-7.2,6-10.7c0.2-0.3,0.4-0.6,0.5-0.9c0.2,0,0.3,0,0.4,0c0.1,0,0.2,0.1,0.2,0.2
		c11,18.8,22,37.7,32.9,56.5c0.2,0.3,0.3,0.7,0.4,1.1C489.6,466.5,489.5,466.6,489.5,466.7z"/>
	<path class="st0" d="M152.2,387.6c-0.3-0.3-0.6-0.4-0.8-0.6c-10.6-18.2-21.2-36.3-31.8-54.5c-0.1-0.2-0.1-0.6-0.1-0.9
		c0.4-0.1,0.8-0.3,1.1-0.3c20.8,0,41.6,0,62.5,0.1c0.3,1.1-0.4,1.8-0.8,2.5c-3,5.4-6,10.8-9,16.1c-5,8.9-9.9,17.7-14.9,26.6
		c-1.8,3.2-3.6,6.5-5.4,9.7C152.8,386.8,152.5,387.1,152.2,387.6z"/>
	<path class="st0" d="M565.3,339.3c-0.7,0.2-1,0.3-1.3,0.3c-19.3-0.4-38.5-0.8-57.8-1.2c-0.3,0-0.5-0.2-0.8-0.3
		c-0.1-1.1,0.6-1.9,1.1-2.7c5.6-9.6,11.3-19.2,16.9-28.8c2.4-4.1,4.8-8.3,7.3-12.4c1.5-2.6,3-5.2,4.5-7.7c1-0.1,1.1,0.6,1.4,1.1
		c3.6,6.5,7.3,13,10.9,19.4c5.4,9.6,10.8,19.3,16.1,28.9C564.2,336.9,564.7,338,565.3,339.3z"/>
	<path class="st0" d="M75.1,506.1c-0.5-0.5-0.8-0.8-0.9-1.1c-9.1-16.3-18.2-32.6-27.3-49c-0.2-0.3-0.2-0.7-0.3-1.1
		c0.8-0.7,1.8-0.5,2.6-0.5c5.9,0.1,11.7,0.2,17.6,0.3c7.3,0.1,14.7,0.3,22,0.5c4.3,0.1,8.6,0.2,12.9,0.3c0.8,0,1.5,0.2,2.3,0.2
		c0.1,1.2-0.6,2-1.1,2.8c-5.2,8.9-10.4,17.7-15.6,26.6c-3.1,5.2-6,10.5-9.1,15.8C77.4,502.7,76.2,504.3,75.1,506.1z"/>
	<path class="st0" d="M524.8,366.1c1.7,2.1,23.1,37.5,27.8,46.1c0.4,0.7,0.6,1.4,1,2.1c-0.4,0.2-0.6,0.4-0.9,0.4
		c-18.1,0.1-36.2,0.5-54.2,0.4c-0.3-1.2,0.3-1.8,0.7-2.6c2.5-4.6,5-9.1,7.5-13.6c4.4-8.1,8.9-16.1,13.3-24.2
		c1.4-2.6,2.8-5.1,4.2-7.7C524.3,366.7,524.6,366.4,524.8,366.1z"/>
	<path class="st0" d="M484.1,376.3c-0.7,0.3-0.9,0.5-1.2,0.5c-1.9,0.2-51.1,0.2-52.6,0c-0.1-1,0.5-1.8,0.9-2.6
		c2.5-4.5,5-9.1,7.5-13.6c4.3-7.7,8.5-15.4,12.8-23.1c1.2-2.2,2.4-4.5,3.7-6.7c0.2-0.4,0.6-0.8,1-1.4c0.5,0.6,1,1.1,1.3,1.7
		c4.1,6.8,8.1,13.6,12.2,20.4c4.3,7.2,8.6,14.5,12.8,21.7C483,374.2,483.5,375.2,484.1,376.3z"/>
	<path class="st0" d="M451.9,257.4c0.3,0.1,0.5,0.1,0.6,0.3c8.9,15.2,17.8,30.4,26.7,45.6c0.2,0.3,0.2,0.7,0.3,1
		c-0.2,0.2-0.2,0.3-0.3,0.3c-0.3,0.1-0.6,0.2-0.8,0.2c-17,0-34,0-51.1,0c-0.4,0-0.8-0.1-1.3-0.2c0.2-0.6,0.2-1.2,0.4-1.6
		c1.8-3.3,3.6-6.5,5.4-9.8c5.1-9.1,10.2-18.3,15.3-27.4c1.4-2.5,2.8-4.9,4.2-7.4C451.4,258,451.7,257.7,451.9,257.4z"/>
	<path class="st0" d="M512.9,196.8c8.6,15.7,17,30.9,25.2,46.2c0.3,0.6,0.5,1.2,0.7,1.7c-0.6,0.9-1.3,0.7-2,0.7
		c-2.7-0.1-5.5-0.3-8.2-0.3c-10.5-0.3-20.9-0.6-31.4-0.9c-3.2-0.1-6.4-0.2-9.7-0.3c-0.8,0-1.5-0.2-2.3-0.3c0.1-1.3,0.8-2.2,1.3-3.1
		c4.5-7.6,9-15.1,13.5-22.7c3.2-5.4,6.3-10.8,9.5-16.2C510.6,200.1,511.7,198.7,512.9,196.8z"/>
	<path class="st0" d="M111,381.4c0.2,1.3-0.5,2-1,2.8c-2.5,4.6-5,9.1-7.5,13.6c-4.1,7.5-8.2,14.9-12.3,22.4c-1.3,2.4-2.6,4.8-4,7.2
		c-0.2,0.4-0.5,0.7-1,1.2c-0.5-0.6-0.8-1.1-1.1-1.6c-8.8-14.8-17.6-29.6-26.3-44.5c-0.1-0.1,0-0.4,0.1-0.7c0.3-0.1,0.7-0.2,1.1-0.2
		C76.3,381.7,93.6,381.5,111,381.4z"/>
	<path class="st0" d="M177,418.7c-0.4,0.8-0.7,1.6-1.1,2.4c-6.5,11.7-12.9,23.4-19.4,35.2c-1.2,2.1-2.3,4.3-3.5,6.4
		c-0.3,0.5-0.7,0.9-1.1,1.3c-0.3-0.3-0.6-0.4-0.8-0.6c-8.5-14.4-17-28.7-25.5-43.1c-0.2-0.3-0.2-0.7-0.4-1.3
		c0.5-0.2,0.9-0.4,1.4-0.5c0.5-0.1,1,0,1.5,0c15.3-0.1,30.7-0.1,46-0.2C174.9,418.2,175.9,417.9,177,418.7z"/>
	<path class="st0" d="M155.9,533.9c-1.3-1.7-24.8-41.3-26.1-43.9c-0.2-0.4-0.3-0.9-0.4-1.3c0.9-0.8,1.8-0.6,2.6-0.6
		c5.2,0,10.4,0,15.5,0c10.1,0,20.1,0,30.2,0c1.1,0,2.1-0.2,3.2,0.3c0.3,1.1-0.5,1.9-0.9,2.7c-2.5,4.6-5.1,9.2-7.7,13.8
		c-4,7.3-8.1,14.5-12.2,21.8c-1.1,2-2.2,3.9-3.3,5.9C156.6,533,156.3,533.4,155.9,533.9z"/>
	<path class="st0" d="M71.9,546.1c1.1-0.8,2.2-0.5,3.2-0.4c3.7,0.1,7.4,0.3,11.1,0.4c11.3,0.3,22.7,0.6,34,0.9c1,0,2.1-0.2,3.2,0.5
		c0,1.2-0.7,2-1.3,2.9c-2.9,5-5.9,9.9-8.9,14.8c-3.9,6.5-7.7,12.9-11.6,19.4c-1.3,2.1-2.5,4.2-3.8,6.3c-0.2,0.3-0.5,0.6-0.7,0.8
		c-0.9,0.1-1.1-0.5-1.4-1c-1.5-2.6-2.9-5.3-4.4-8c-6-10.9-11.9-21.8-17.9-32.7C73,548.8,72.2,547.6,71.9,546.1z"/>
	<path class="st0" d="M464.3,169.7c-0.8,0.8-1.8,0.5-2.6,0.5c-4-0.1-8-0.3-12-0.4c-7.7-0.2-15.4-0.4-23.2-0.6c-1.1,0-2.1,0.1-3-0.3
		c-0.6-0.9-0.1-1.4,0.2-2c1.7-2.9,3.4-5.7,5-8.6c3.8-6.5,7.7-13,11.5-19.4c0.9-1.5,1.8-3,2.7-4.5c0.2-0.4,0.6-0.7,1.1-1.2
		c0.5,0.5,0.9,0.8,1.2,1.3c1.3,2.3,2.6,4.6,3.9,6.9c4.6,8.3,9.2,16.6,13.7,24.9C463.5,167.5,464.3,168.5,464.3,169.7z"/>
	<path class="st0" d="M183.6,619.7c0.2,1.2-0.5,1.9-1,2.7c-2.3,3.9-4.6,7.8-6.9,11.6c-3.3,5.6-6.5,11.1-9.8,16.7
		c-0.7,1.1-1.2,2.5-2.4,3.2c-0.3-0.2-0.6-0.4-0.7-0.6c-6.2-11.1-12.3-22.2-18.4-33.4c-0.2-0.3-0.2-0.7-0.2-1c0.4-0.8,1-0.8,1.6-0.8
		c11.7,0.3,23.5,0.6,35.2,0.9C181.8,619.1,182.9,618.9,183.6,619.7z"/>
	<path class="st0" d="M442.4,240c-0.2,0.1-0.4,0.3-0.5,0.3c-12.4,0-24.8-0.1-37.2-0.1c-0.5,0-0.9-0.1-1.4-0.2
		c-0.3-1.1,0.4-1.8,0.8-2.5c3.6-6.5,7.3-12.9,11-19.4c1.8-3.2,3.5-6.3,5.3-9.5c0.6-1.1,1.3-2.1,2.1-3.4c0.5,0.5,0.8,0.8,1,1.2
		c6,10.3,12,20.6,17.9,31C441.9,238.2,442.6,238.9,442.4,240z"/>
	<path class="st0" d="M203.1,550.6c-0.2,0.7-0.1,1-0.3,1.3c-5.8,10.3-11.6,20.6-17.4,30.9c-0.2,0.4-0.6,0.7-0.9,1.1
		c-1-0.2-1.2-1.1-1.6-1.7c-4.7-8.1-9.4-16.2-14.1-24.4c-1-1.7-2-3.4-2.9-5.1c-0.3-0.6-0.5-1.2-0.7-1.7c0.5-0.9,1.3-0.7,1.9-0.7
		c3,0,6.1,0,9.1,0c7.9,0,15.8,0.1,23.8,0.1C200.9,550.5,201.9,550.6,203.1,550.6z"/>
	<path class="st0" d="M371.1,149.6c-0.5,0.9-1.2,0.8-1.9,0.8c-2.3,0.1-4.7,0.2-7,0.3c-7.2,0.3-14.4,0.6-21.7,0.9
		c-1.3,0.1-2.5,0.2-3.8,0.2c-0.6,0-1.3-0.2-2-0.2c-0.3-1.2,0.3-2,0.8-2.9c1.9-3.8,3.8-7.5,5.7-11.3c2.6-5.2,5.3-10.5,7.9-15.7
		c0.5-1,0.9-2.2,1.8-2.8c1-0.1,1.3,0.5,1.7,1.1c2.3,3.6,4.7,7.2,7,10.8c3.4,5.3,6.9,10.7,10.3,16
		C370.4,147.8,371.1,148.6,371.1,149.6z"/>
	<path class="st0" d="M233.9,638c0.6-0.3,0.8-0.6,1.1-0.6c11-0.5,22.1-0.9,33.1-1.3c0.4,0,0.7,0.2,1.1,0.3c0.3,1.3-0.4,2.2-0.8,3.1
		c-1.6,3.2-3.3,6.4-4.9,9.7c-2.7,5.3-5.3,10.7-8,16c-0.5,1-0.8,2.2-2.2,2.7c-0.4-0.5-1-0.9-1.3-1.5c-5.6-8.7-11.2-17.4-16.8-26.1
		C234.7,639.5,234.4,638.8,233.9,638z"/>
	<path class="st0" d="M371.6,184.4c1.8,2.3,12.4,20.9,17.1,29.9c0.3,0.5,0.4,1,0.7,1.8c-0.6,0.2-1.1,0.4-1.5,0.4
		c-10.4-0.2-20.7-0.5-31.1-0.7c-1,0-2,0.1-2.8-0.4c-0.3-0.9,0.3-1.6,0.7-2.2c2.8-4.7,5.5-9.4,8.3-14.2c2.3-3.9,4.5-7.8,6.8-11.7
		C370.2,186.4,370.8,185.5,371.6,184.4z"/>
	<path class="st0" d="M250.6,574.8c0.2,1-0.4,1.7-0.9,2.4c-2.8,4.8-5.6,9.6-8.5,14.4c-1.9,3.2-3.7,6.4-5.6,9.7
		c-0.6,1-1.1,2.1-2.2,2.9c-0.5-0.6-0.9-1.1-1.2-1.6c-3-5.4-6-10.8-9-16.2c-1.9-3.3-3.7-6.7-5.6-10c-0.4-0.7-1-1.5-0.9-2.5
		c0.4-0.1,0.7-0.4,1.1-0.3c10.1,0.2,20.2,0.4,30.2,0.7C249,574.3,249.9,574.1,250.6,574.8z"/>
	<path class="st0" d="M307.1,214.9c-0.7,0.9-1.5,0.7-2.3,0.7c-3.2,0-6.4,0-9.7,0.1c-5.8,0.1-11.5,0.2-17.3,0.3
		c-0.9,0-1.9,0.2-2.8-0.4c-0.3-1.1,0.3-1.8,0.7-2.5c1.6-2.9,3.2-5.8,4.7-8.8c2.6-4.9,5.3-9.8,7.9-14.7c0.5-0.9,0.9-1.7,1.6-2.3
		c1,0,1.2,0.8,1.5,1.3c4.4,7.3,8.8,14.6,13.2,21.8c0.7,1.1,1.3,2.2,2,3.3C306.9,214,307,214.5,307.1,214.9z"/>
	<path class="st0" d="M312.2,601.7c-1.6-1.8-12.7-19.9-15.6-25.3c-0.2-0.4-0.3-0.9-0.4-1.2c0.4-0.8,1-0.9,1.6-0.9
		c2.4,0,4.9,0,7.3-0.1c6.3-0.1,12.5-0.2,18.8-0.3c1,0,2.1-0.3,3.2,0.5c0.2,1.1-0.5,1.9-0.9,2.7c-2.3,4.3-4.7,8.6-7,12.9
		c-1.7,3.1-3.3,6.2-5,9.3C313.6,600.2,313.3,601.1,312.2,601.7z"/>
	<path class="st0" d="M244.1,244.6c-0.6,0.1-1,0.3-1.5,0.4c-1.3,0.1-2.5,0-3.8,0.1c-5.1,0.1-10.2,0.2-15.2,0.3
		c-0.8,0-1.8,0.3-2.6-0.6c0.1-0.4,0.2-0.8,0.4-1.3c2.8-5.8,9.1-17.1,10.4-18.8c0.3,0.2,0.7,0.4,0.8,0.7c3.7,6,7.3,12,11,18
		C243.9,243.7,243.9,244.1,244.1,244.6z"/>
	<path class="st0" d="M357.1,546.3c2.5-0.6,11.4-0.8,19.9-0.7c0.7,0,1.3,0.2,1.9,0.2c0.5,1-0.1,1.7-0.5,2.3c-2.7,5-5.3,10-8,14.9
		c-0.4,0.8-0.9,1.5-1.2,2.1c-0.8,0.2-1.1-0.2-1.4-0.6c-3.4-5.5-6.7-11-10-16.5C357.5,547.6,357.3,547,357.1,546.3z"/>
	<path class="st0" d="M194.1,256.2c0.4,0.4,0.7,0.6,0.9,0.9c2.6,3.7,9.4,15,10.2,16.9c-0.3,0.1-0.7,0.3-1,0.4
		c-6,0.2-11.9,0.4-17.9,0.5c-0.5,0-1.1-0.2-1.7-0.3c0.1-0.4,0.1-0.8,0.2-1c2.9-5.6,5.8-11.1,8.6-16.7
		C193.6,256.7,193.8,256.5,194.1,256.2z"/>
	<path class="st0" d="M394.7,518c0.4-0.2,0.7-0.4,0.9-0.4c5.9-0.2,11.9-0.4,17.8-0.5c0.3,0,0.5,0.2,0.9,0.3
		c-0.1,0.4-0.1,0.8-0.3,1.1c-1.2,2.8-7.7,14.9-8.8,16.3c-0.3-0.2-0.7-0.4-0.8-0.6c-3.2-5-6.3-10.1-9.5-15.1
		C394.8,518.8,394.8,518.5,394.7,518z"/>
	<path class="st0" d="M273.6,184.6c-1.8,0.7-5.9,0.9-16.9,1.1c-0.8,0-1.8,0.3-2.5-0.5c0-0.3,0-0.6,0.1-0.8
		c2.6-5.1,5.2-10.2,7.9-15.3c0.2-0.3,0.5-0.6,0.9-1c0.4,0.3,0.8,0.6,1.1,0.9c3,4.8,6,9.6,9,14.3
		C273.4,183.6,273.4,184.1,273.6,184.6z"/>
	<path class="st0" d="M296.7,168.8c0-0.4,0-0.8,0.1-1c2.8-5,5.6-10.1,8.4-15.1c0.1-0.2,0.4-0.3,0.8-0.6c0.3,0.3,0.6,0.4,0.8,0.7
		c2.9,4.9,5.8,9.8,8.6,14.7c0.2,0.3,0.3,0.7,0.4,1.2c-0.4,0.2-0.8,0.4-1.1,0.4c-5.6,0-11.1,0-16.7,0
		C297.6,169.1,297.2,168.9,296.7,168.8z"/>
	<path class="st0" d="M347,603.6c0,0.4,0.2,0.7,0.1,1c-2.5,5-5,9.9-7.6,14.9c-0.2,0.3-0.5,0.5-0.8,0.7c-0.3-0.1-0.5-0.2-0.6-0.3
		c-3-4.7-6-9.4-9-14.1c-0.3-0.4-0.4-0.9-0.6-1.5c0.4-0.2,0.7-0.5,1.1-0.5c5.4-0.2,10.7-0.4,16.1-0.5
		C346,603.3,346.5,603.5,347,603.6z"/>
	<path class="st0" d="M287.6,619.6c2.4-0.5,9.7-0.6,16.7-0.4c0.6,0,1.1,0.2,1.9,0.3c-0.2,0.6-0.2,1.1-0.4,1.5c-2.5,4.5-5,9-7.6,13.6
		c-0.2,0.4-0.6,0.7-0.9,1c-0.4-0.1-0.6-0.1-0.7-0.3c-2.8-4.7-5.6-9.4-8.4-14C288,620.8,287.9,620.3,287.6,619.6z"/>
</g>
</svg>
