<?xml version="1.0" encoding="utf-8"?>
<!-- Generator: Adobe Illustrator 22.1.0, SVG Export Plug-In . SVG Version: 6.00 Build 0)  -->
<svg version="1.1" id="Calque_1" xmlns="http://www.w3.org/2000/svg" xmlns:xlink="http://www.w3.org/1999/xlink" x="0px" y="0px"
	 viewBox="0 0 612 792" style="enable-background:new 0 0 612 792;" xml:space="preserve">
<g>
	<path d="M378.2,386.5c-0.1,23-5.6,44.7-15.5,65.3c-7.7,16-17.8,30.3-30.5,42.6c-6.1,5.9-12.7,11.2-19.9,15.7
		c-2.3,1.5-5,1.6-7.6,0.1c-12.7-7.5-23.6-17.1-33-28.4c-19.6-23.6-31.5-50.6-35.3-81.1c-2-16.3-1.2-32.5,3.6-48.3
		c3.8-12.6,9.9-24,19.2-33.4c10.4-10.4,22.9-16.6,37.5-18.4c9.1-1.1,18.2-0.9,27.1,1.3c15.5,3.8,27.7,12.6,37.1,25.4
		c8.4,11.5,13.1,24.5,15.5,38.4C377.7,372.6,378.2,379.5,378.2,386.5z M325.9,383.8c0-10.7-8.7-19.6-19.2-19.6
		c-10.7,0-19.5,8.7-19.5,19.3c0,10.7,8.6,19.6,19.2,19.6C318,402.9,325.6,394.3,325.9,383.8z"/>
	<path d="M491.6,399.6c-0.9,18.4-9.1,36.8-26,51.1c-1.7,1.5-3.7,2.6-5.5,3.9c-1.6,1.2-3.3,1.1-4.9,0c-3.9-2.5-7.5-5.3-10.6-8.7
		c-13.8-14.6-20.9-31.9-20.6-52.1c0.1-7.5,1.8-14.7,5.5-21.3c6.4-11.6,16.2-17.4,29.5-17c12.7,0.4,21.8,6.7,27.6,17.8
		C490.3,380.4,491.7,388.1,491.6,399.6z M457.7,404.2c5.1,0,9.2-4.2,9.2-9.3c-0.1-4.9-4.2-9.1-9.2-9.1c-5,0-9.1,4.1-9.2,9.1
		C448.5,400,452.6,404.2,457.7,404.2z"/>
	<path d="M187.2,396.9c-0.9,18.9-9.1,37.3-26,51.6c-1.7,1.4-3.5,2.5-5.3,3.8c-1.8,1.3-3.5,1.3-5.4,0c-4.4-2.9-8.5-6.2-11.9-10.1
		c-13.2-15-19.9-32.4-19-52.5c0.4-7.9,2.5-15.4,6.9-22.1c6.3-9.5,15.2-14.4,26.6-14.4c12.8,0,22.2,5.8,28.3,16.9
		C185.7,377.5,187.2,385.6,187.2,396.9z M162.3,393c0.1-5-4-9.1-8.9-9.2c-5.1-0.1-9.4,4-9.4,9.1c0,5,4.3,9.3,9.2,9.3
		C158.2,402.1,162.3,398,162.3,393z"/>
	<path d="M275.5,181.9c-0.8,0.5-1.5,1.1-2.2,1.5c-8.6,4.6-17.2,9.1-25.8,13.7c-11.7,6.2-23.4,12.5-35.2,18.7c-1.8,0.9-2.6,2-2.9,4
		c-2.7,18.3-5.5,36.6-8.3,55c-0.6,4.1-0.6,3.9-4.7,4.7c-8.4,1.5-16.8,3.3-25.1,4.9c-9.5,1.9-19,3.8-28.5,5.6
		c-1.7,0.3-2.9,1.1-3.9,2.5c-8.8,12.9-17.7,25.8-26.6,38.6c-0.8,1.2-1.7,2.3-3,2.9c-0.8-0.8-0.2-1.4,0-2.1
		c4.7-13.5,9.4-26.9,14-40.4c1.2-3.5,2.5-7,3.5-10.5c0.5-1.6,1.3-2.2,2.8-2.5c4.7-0.8,9.4-1.7,14-2.6c14.4-2.8,28.8-5.6,43.2-8.4
		c2.3-0.5,2.4-0.5,2.7-2.9c2.5-18,4.9-35.9,7.4-53.9c0.2-1.8,0.6-3.5,0.7-5.3c0.1-1.5,0.7-2.2,2.2-2.6c13-3.8,25.9-7.7,38.9-11.6
		c9.9-3,19.7-5.9,29.6-8.9c1.5-0.4,2.9-1,4.4-1.4C273.7,180.8,274.6,180.5,275.5,181.9z"/>
	<path d="M343.8,600.6c1.5-0.9,2.7-1.7,3.9-2.4c19.4-10.3,38.9-20.6,58.3-30.9c0.6-0.3,1.3-0.7,1.9-1c1.3-0.5,1.7-1.4,1.9-2.8
		c2.8-18.6,5.6-37.3,8.4-55.9c0.6-3.9,0.6-3.7,4.5-4.5c6.7-1.2,13.3-2.6,19.9-3.9c11.2-2.2,22.4-4.5,33.7-6.7
		c1.7-0.3,2.9-1.1,3.9-2.5c8.9-13,17.8-25.9,26.7-38.8c0.7-1.1,1.5-2.2,3.2-2.7c-0.2,0.7-0.2,1.2-0.4,1.6
		c-4.7,13.5-9.4,26.9-14.1,40.4c-1.2,3.6-2.5,7.1-3.5,10.8c-0.5,1.6-1.3,2.2-2.8,2.5c-2.2,0.3-4.5,0.7-6.7,1.1
		c-16.8,3.3-33.7,6.6-50.5,9.8c-2.8,0.5-2.4,0.8-2.7,2.9c-2.3,17-4.7,34-7,51c-0.4,2.8-0.8,5.6-1.1,8.4c-0.1,1.3-0.6,1.9-1.9,2.3
		c-17.1,5.1-34.1,10.2-51.2,15.3c-7,2.1-14,4.3-21,6.5C346.2,601.3,345.2,601.9,343.8,600.6z"/>
	<path d="M191.8,579.6c-0.3-1.8-0.5-3.6-0.8-5.3c-2.3-17.7-4.6-35.3-6.9-53c-0.1-1-0.3-2.1-0.4-3.1c-0.3-2.2-0.3-2.3-2.6-2.7
		c-7.8-1.6-15.6-3.1-23.5-4.7c-8.8-1.8-17.5-3.5-26.3-5.3c-2.6-0.5-5.2-1-7.8-1.4c-1.2-0.2-1.9-0.8-2.3-2.1
		c-5.6-16.7-11.2-33.3-16.9-49.9c-0.3-1-0.6-1.9-1-3.2c1.8,0.5,2.6,1.7,3.3,2.8c1.8,2.8,3.6,5.6,5.4,8.3c3.8,5.6,7.6,11.2,11.4,16.8
		c3.2,4.6,6.5,9.2,9.7,13.9c0.9,1.4,2.1,2.1,3.7,2.4c17.1,3.5,34.1,7,51.2,10.5c1.5,0.3,3,0.5,4.5,0.8c1.6,0.3,2.1,1,2.3,2.4
		c1.4,9.6,2.7,19.1,4.1,28.7c1.4,9.5,2.8,19,4.1,28.5c0.2,1.8,1,2.8,2.6,3.7c19.7,10.5,39.3,21.1,59,31.7c1.4,0.8,3,1.4,4.1,2.7
		c-1,1.3-2.1,0.6-3,0.4c-4.6-1.4-9.2-3-13.8-4.4c-17.9-5.6-35.9-11.1-53.8-16.6C195.9,580.7,193.9,580.2,191.8,579.6z"/>
	<path d="M341,183.1c1.2-1.2,2.2-0.7,3.1-0.5c11.5,3.6,23.1,7.2,34.6,10.8c11.2,3.5,22.5,7,33.7,10.4c1.2,0.4,2.5,0.8,3.7,1
		c1.4,0.3,1.9,1,2.1,2.5c1.4,10.8,2.8,21.6,4.2,32.4c1.2,9,2.4,18.1,3.6,27.1c0.3,2.3,0.3,2.3,2.6,2.7c16.7,3.4,33.5,6.7,50.2,10.1
		c2.4,0.5,4.9,0.9,7.4,1.3c1.2,0.2,1.9,0.9,2.3,2.1c5.8,17.3,11.7,34.5,17.5,51.7c0.1,0.3,0.1,0.7,0.2,1.4c-1.7-0.7-2.5-1.8-3.2-3
		c-5.2-7.8-10.3-15.6-15.5-23.3c-3.5-5.2-7.2-10.3-10.8-15.5c-0.9-1.4-2.1-2.1-3.7-2.4c-17.1-3.5-34.3-7-51.4-10.5
		c-1.4-0.3-2.9-0.4-4.3-0.7c-1.6-0.4-2.1-1-2.3-2.6c-1.9-13.6-3.9-27.3-5.9-40.9c-0.7-4.8-1.4-9.6-2.1-14.4c-0.7-4.8,0-3.8-4.1-6
		c-16.2-8.7-32.3-17.4-48.5-26.2c-3.8-2-7.5-4-11.3-6.1C342.5,184.2,341.9,183.7,341,183.1z"/>
</g>
</svg>
